<mxfile host="app.diagrams.net" agent="Mozilla/5.0 (Macintosh; Intel Mac OS X 10.15; rv:142.0) Gecko/20100101 Firefox/142.0" version="28.1.0">
  <diagram name="Page-1" id="6l41t_Sms0xuLJgWE2Ru">
    <mxGraphModel dx="2335" dy="895" grid="1" gridSize="10" guides="1" tooltips="1" connect="1" arrows="1" fold="1" page="1" pageScale="1" pageWidth="1100" pageHeight="850" math="0" shadow="0">
      <root>
        <mxCell id="0" />
        <mxCell id="1" parent="0" />
        <mxCell id="sCxbNNpp0al_44tGgBxE-332" style="edgeStyle=orthogonalEdgeStyle;rounded=0;orthogonalLoop=1;jettySize=auto;html=1;exitX=0.5;exitY=1;exitDx=0;exitDy=0;entryX=0.5;entryY=0;entryDx=0;entryDy=0;" parent="1" source="sCxbNNpp0al_44tGgBxE-317" target="sCxbNNpp0al_44tGgBxE-324" edge="1">
          <mxGeometry relative="1" as="geometry" />
        </mxCell>
        <mxCell id="sCxbNNpp0al_44tGgBxE-347" style="edgeStyle=orthogonalEdgeStyle;rounded=0;orthogonalLoop=1;jettySize=auto;html=1;entryX=0.5;entryY=0;entryDx=0;entryDy=0;" parent="1" source="sCxbNNpp0al_44tGgBxE-324" target="sCxbNNpp0al_44tGgBxE-334" edge="1">
          <mxGeometry relative="1" as="geometry">
            <Array as="points">
              <mxPoint x="733" y="570" />
              <mxPoint x="470" y="570" />
            </Array>
          </mxGeometry>
        </mxCell>
        <mxCell id="sCxbNNpp0al_44tGgBxE-348" style="edgeStyle=orthogonalEdgeStyle;rounded=0;orthogonalLoop=1;jettySize=auto;html=1;exitX=0.5;exitY=1;exitDx=0;exitDy=0;" parent="1" source="sCxbNNpp0al_44tGgBxE-324" target="sCxbNNpp0al_44tGgBxE-341" edge="1">
          <mxGeometry relative="1" as="geometry" />
        </mxCell>
        <mxCell id="sCxbNNpp0al_44tGgBxE-373" style="edgeStyle=orthogonalEdgeStyle;rounded=0;orthogonalLoop=1;jettySize=auto;html=1;exitX=0.5;exitY=1;exitDx=0;exitDy=0;entryX=0.5;entryY=0;entryDx=0;entryDy=0;" parent="1" source="sCxbNNpp0al_44tGgBxE-350" target="sCxbNNpp0al_44tGgBxE-360" edge="1">
          <mxGeometry relative="1" as="geometry" />
        </mxCell>
        <mxCell id="sCxbNNpp0al_44tGgBxE-374" style="edgeStyle=orthogonalEdgeStyle;rounded=0;orthogonalLoop=1;jettySize=auto;html=1;" parent="1" source="sCxbNNpp0al_44tGgBxE-350" target="sCxbNNpp0al_44tGgBxE-367" edge="1">
          <mxGeometry relative="1" as="geometry" />
        </mxCell>
        <mxCell id="sCxbNNpp0al_44tGgBxE-385" value="&lt;h1 style=&quot;margin-top: 0px;&quot;&gt;Wire Transfer Agent&lt;/h1&gt;" style="text;html=1;whiteSpace=wrap;overflow=hidden;rounded=0;" parent="1" vertex="1">
          <mxGeometry x="90" y="60" width="280" height="50" as="geometry" />
        </mxCell>
        <mxCell id="sCxbNNpp0al_44tGgBxE-500" style="edgeStyle=orthogonalEdgeStyle;rounded=0;orthogonalLoop=1;jettySize=auto;html=1;" parent="1" source="sCxbNNpp0al_44tGgBxE-394" target="sCxbNNpp0al_44tGgBxE-494" edge="1">
          <mxGeometry relative="1" as="geometry" />
        </mxCell>
        <mxCell id="sCxbNNpp0al_44tGgBxE-394" value="" style="rounded=1;whiteSpace=wrap;html=1;arcSize=5;container=0;fillColor=#dae8fc;strokeColor=#6c8ebf;shadow=1;" parent="1" vertex="1">
          <mxGeometry x="230" y="1347" width="201" height="210" as="geometry" />
        </mxCell>
        <mxCell id="sCxbNNpp0al_44tGgBxE-395" value="&lt;div&gt;&lt;i&gt;Ok, before I send the wire please&amp;nbsp;&lt;/i&gt;&lt;/div&gt;&lt;div&gt;&lt;i&gt;review this information:&lt;/i&gt;&lt;/div&gt;&lt;div&gt;&lt;i&gt;- Source Acct: 123435&lt;/i&gt;&lt;/div&gt;&lt;div&gt;&lt;i&gt;- Target Acct: 34524&lt;/i&gt;&lt;/div&gt;&lt;div&gt;&lt;i&gt;- Bank code: ABCDE&lt;/i&gt;&lt;/div&gt;&lt;div&gt;&lt;i&gt;- Amount: $500&lt;/i&gt;&lt;/div&gt;&lt;div&gt;&lt;i&gt;&lt;br&gt;&lt;/i&gt;&lt;/div&gt;&lt;div&gt;&lt;i&gt;Does this look correct?&lt;/i&gt;&lt;/div&gt;" style="text;html=1;align=left;verticalAlign=top;resizable=0;points=[];autosize=1;strokeColor=none;fillColor=none;container=0;" parent="1" vertex="1">
          <mxGeometry x="237.30625000000006" y="1377.1084210526315" width="200" height="130" as="geometry" />
        </mxCell>
        <mxCell id="sCxbNNpp0al_44tGgBxE-396" value="&lt;div&gt;- Yes&lt;/div&gt;&lt;div&gt;- No&lt;/div&gt;" style="text;html=1;align=left;verticalAlign=top;resizable=0;points=[];autosize=1;strokeColor=none;fillColor=none;fontFamily=Helvetica;container=0;" parent="1" vertex="1">
          <mxGeometry x="237.30625000000006" y="1509.8947368421052" width="50" height="40" as="geometry" />
        </mxCell>
        <mxCell id="sCxbNNpp0al_44tGgBxE-397" value="" style="endArrow=none;html=1;rounded=0;" parent="1" edge="1">
          <mxGeometry width="50" height="50" relative="1" as="geometry">
            <mxPoint x="230.00000000000006" y="1376.6315789473683" as="sourcePoint" />
            <mxPoint x="431.00000000000006" y="1377.1052631578948" as="targetPoint" />
          </mxGeometry>
        </mxCell>
        <mxCell id="sCxbNNpp0al_44tGgBxE-398" value="" style="endArrow=none;html=1;rounded=0;" parent="1" edge="1">
          <mxGeometry width="50" height="50" relative="1" as="geometry">
            <mxPoint x="230.00000000000006" y="1508.3157894736842" as="sourcePoint" />
            <mxPoint x="431.00000000000006" y="1508.7894736842104" as="targetPoint" />
          </mxGeometry>
        </mxCell>
        <mxCell id="sCxbNNpp0al_44tGgBxE-399" value="Agent Message w/ Options" style="text;html=1;align=left;verticalAlign=top;resizable=0;points=[];autosize=1;strokeColor=none;fillColor=none;container=0;fontStyle=1" parent="1" vertex="1">
          <mxGeometry x="237.30625000000006" y="1348.4736842105262" width="170" height="30" as="geometry" />
        </mxCell>
        <mxCell id="sCxbNNpp0al_44tGgBxE-402" style="edgeStyle=orthogonalEdgeStyle;rounded=0;orthogonalLoop=1;jettySize=auto;html=1;" parent="1" source="sCxbNNpp0al_44tGgBxE-376" target="sCxbNNpp0al_44tGgBxE-387" edge="1">
          <mxGeometry relative="1" as="geometry" />
        </mxCell>
        <mxCell id="sCxbNNpp0al_44tGgBxE-403" style="edgeStyle=orthogonalEdgeStyle;rounded=0;orthogonalLoop=1;jettySize=auto;html=1;entryX=0.5;entryY=0;entryDx=0;entryDy=0;" parent="1" source="sCxbNNpp0al_44tGgBxE-387" target="sCxbNNpp0al_44tGgBxE-394" edge="1">
          <mxGeometry relative="1" as="geometry" />
        </mxCell>
        <mxCell id="sCxbNNpp0al_44tGgBxE-501" style="edgeStyle=orthogonalEdgeStyle;rounded=0;orthogonalLoop=1;jettySize=auto;html=1;" parent="1" source="sCxbNNpp0al_44tGgBxE-494" target="sCxbNNpp0al_44tGgBxE-487" edge="1">
          <mxGeometry relative="1" as="geometry" />
        </mxCell>
        <mxCell id="sCxbNNpp0al_44tGgBxE-522" style="edgeStyle=orthogonalEdgeStyle;rounded=0;orthogonalLoop=1;jettySize=auto;html=1;" parent="1" source="sCxbNNpp0al_44tGgBxE-341" target="sCxbNNpp0al_44tGgBxE-514" edge="1">
          <mxGeometry relative="1" as="geometry" />
        </mxCell>
        <mxCell id="sCxbNNpp0al_44tGgBxE-530" style="edgeStyle=orthogonalEdgeStyle;rounded=0;orthogonalLoop=1;jettySize=auto;html=1;entryX=0.5;entryY=0;entryDx=0;entryDy=0;" parent="1" source="sCxbNNpp0al_44tGgBxE-514" target="sCxbNNpp0al_44tGgBxE-524" edge="1">
          <mxGeometry relative="1" as="geometry" />
        </mxCell>
        <mxCell id="sCxbNNpp0al_44tGgBxE-550" style="edgeStyle=orthogonalEdgeStyle;rounded=0;orthogonalLoop=1;jettySize=auto;html=1;" parent="1" source="sCxbNNpp0al_44tGgBxE-551" target="sCxbNNpp0al_44tGgBxE-569" edge="1">
          <mxGeometry relative="1" as="geometry" />
        </mxCell>
        <mxCell id="sCxbNNpp0al_44tGgBxE-551" value="" style="rounded=1;whiteSpace=wrap;html=1;arcSize=5;container=0;fillColor=#dae8fc;strokeColor=#6c8ebf;shadow=1;" parent="1" vertex="1">
          <mxGeometry x="840" y="1327" width="201" height="210" as="geometry" />
        </mxCell>
        <mxCell id="sCxbNNpp0al_44tGgBxE-552" value="&lt;div&gt;&lt;i&gt;Ok, before I send the wire please&amp;nbsp;&lt;/i&gt;&lt;/div&gt;&lt;div&gt;&lt;i&gt;review this information:&lt;/i&gt;&lt;/div&gt;&lt;div&gt;&lt;i&gt;- Source Acct: 123454&lt;/i&gt;&lt;/div&gt;&lt;div&gt;&lt;i&gt;- Target Acct: 546767&lt;/i&gt;&lt;/div&gt;&lt;div&gt;&lt;i&gt;- Bank code: ABXYZ&lt;/i&gt;&lt;/div&gt;&lt;div&gt;&lt;i&gt;- Amount: $500&lt;/i&gt;&lt;/div&gt;&lt;div&gt;&lt;i&gt;&lt;br&gt;&lt;/i&gt;&lt;/div&gt;&lt;div&gt;&lt;i&gt;Does this look correct?&lt;/i&gt;&lt;/div&gt;" style="text;html=1;align=left;verticalAlign=top;resizable=0;points=[];autosize=1;strokeColor=none;fillColor=none;container=0;" parent="1" vertex="1">
          <mxGeometry x="847.3062500000001" y="1357.1084210526315" width="200" height="130" as="geometry" />
        </mxCell>
        <mxCell id="sCxbNNpp0al_44tGgBxE-553" value="&lt;div&gt;- Yes&lt;/div&gt;&lt;div&gt;- No&lt;/div&gt;" style="text;html=1;align=left;verticalAlign=top;resizable=0;points=[];autosize=1;strokeColor=none;fillColor=none;fontFamily=Helvetica;container=0;" parent="1" vertex="1">
          <mxGeometry x="847.3062500000001" y="1489.8947368421052" width="50" height="40" as="geometry" />
        </mxCell>
        <mxCell id="sCxbNNpp0al_44tGgBxE-554" value="" style="endArrow=none;html=1;rounded=0;" parent="1" edge="1">
          <mxGeometry width="50" height="50" relative="1" as="geometry">
            <mxPoint x="840" y="1356.6315789473683" as="sourcePoint" />
            <mxPoint x="1041" y="1357.1052631578948" as="targetPoint" />
          </mxGeometry>
        </mxCell>
        <mxCell id="sCxbNNpp0al_44tGgBxE-555" value="" style="endArrow=none;html=1;rounded=0;" parent="1" edge="1">
          <mxGeometry width="50" height="50" relative="1" as="geometry">
            <mxPoint x="840" y="1488.3157894736842" as="sourcePoint" />
            <mxPoint x="1041" y="1488.7894736842104" as="targetPoint" />
          </mxGeometry>
        </mxCell>
        <mxCell id="sCxbNNpp0al_44tGgBxE-556" value="Agent Message w/ Options" style="text;html=1;align=left;verticalAlign=top;resizable=0;points=[];autosize=1;strokeColor=none;fillColor=none;container=0;fontStyle=1" parent="1" vertex="1">
          <mxGeometry x="847.3062500000001" y="1328.4736842105262" width="170" height="30" as="geometry" />
        </mxCell>
        <mxCell id="sCxbNNpp0al_44tGgBxE-559" style="edgeStyle=orthogonalEdgeStyle;rounded=0;orthogonalLoop=1;jettySize=auto;html=1;" parent="1" source="sCxbNNpp0al_44tGgBxE-535" target="sCxbNNpp0al_44tGgBxE-544" edge="1">
          <mxGeometry relative="1" as="geometry" />
        </mxCell>
        <mxCell id="sCxbNNpp0al_44tGgBxE-560" style="edgeStyle=orthogonalEdgeStyle;rounded=0;orthogonalLoop=1;jettySize=auto;html=1;entryX=0.5;entryY=0;entryDx=0;entryDy=0;" parent="1" source="sCxbNNpp0al_44tGgBxE-544" target="sCxbNNpp0al_44tGgBxE-551" edge="1">
          <mxGeometry relative="1" as="geometry" />
        </mxCell>
        <mxCell id="sCxbNNpp0al_44tGgBxE-575" style="edgeStyle=orthogonalEdgeStyle;rounded=0;orthogonalLoop=1;jettySize=auto;html=1;" parent="1" source="sCxbNNpp0al_44tGgBxE-569" target="sCxbNNpp0al_44tGgBxE-562" edge="1">
          <mxGeometry relative="1" as="geometry" />
        </mxCell>
        <mxCell id="sCxbNNpp0al_44tGgBxE-577" style="edgeStyle=orthogonalEdgeStyle;rounded=0;orthogonalLoop=1;jettySize=auto;html=1;" parent="1" source="sCxbNNpp0al_44tGgBxE-524" target="sCxbNNpp0al_44tGgBxE-535" edge="1">
          <mxGeometry relative="1" as="geometry" />
        </mxCell>
        <mxCell id="sCxbNNpp0al_44tGgBxE-578" style="edgeStyle=orthogonalEdgeStyle;rounded=0;orthogonalLoop=1;jettySize=auto;html=1;" parent="1" source="sCxbNNpp0al_44tGgBxE-367" target="sCxbNNpp0al_44tGgBxE-514" edge="1">
          <mxGeometry relative="1" as="geometry">
            <Array as="points">
              <mxPoint x="780" y="967" />
              <mxPoint x="780" y="787" />
            </Array>
          </mxGeometry>
        </mxCell>
        <mxCell id="sCxbNNpp0al_44tGgBxE-580" value="&lt;div align=&quot;left&quot;&gt;- Short&lt;/div&gt;&lt;div align=&quot;left&quot;&gt;- Anticipates&lt;/div&gt;&lt;div align=&quot;left&quot;&gt;- Advances&lt;/div&gt;" style="shape=note;whiteSpace=wrap;html=1;backgroundOutline=1;fontColor=#000000;darkOpacity=0.05;fillColor=#FFF9B2;strokeColor=none;fillStyle=solid;direction=west;gradientDirection=north;gradientColor=#FFF2A1;shadow=1;size=20;pointerEvents=1;align=left;spacingLeft=8;" parent="1" vertex="1">
          <mxGeometry x="834" y="431" width="140" height="70" as="geometry" />
        </mxCell>
        <mxCell id="sCxbNNpp0al_44tGgBxE-581" value="&lt;div&gt;- Formatted data&lt;/div&gt;&lt;div&gt;- Uses context &amp;amp; data&lt;/div&gt;&lt;div&gt;- Seeks confirmation&lt;/div&gt;" style="shape=note;whiteSpace=wrap;html=1;backgroundOutline=1;fontColor=#000000;darkOpacity=0.05;fillColor=#FFF9B2;strokeColor=none;fillStyle=solid;direction=west;gradientDirection=north;gradientColor=#FFF2A1;shadow=1;size=20;pointerEvents=1;align=left;spacingLeft=8;" parent="1" vertex="1">
          <mxGeometry x="230" y="760" width="140" height="70" as="geometry" />
        </mxCell>
        <mxCell id="sCxbNNpp0al_44tGgBxE-582" value="&lt;div&gt;- Progressive detail&amp;nbsp;&lt;/div&gt;&lt;div&gt;- Confirms&lt;/div&gt;" style="shape=note;whiteSpace=wrap;html=1;backgroundOutline=1;fontColor=#000000;darkOpacity=0.05;fillColor=#FFF9B2;strokeColor=none;fillStyle=solid;direction=west;gradientDirection=north;gradientColor=#FFF2A1;shadow=1;size=20;pointerEvents=1;align=left;spacingLeft=8;" parent="1" vertex="1">
          <mxGeometry x="90" y="1397" width="140" height="70" as="geometry" />
        </mxCell>
        <mxCell id="sCxbNNpp0al_44tGgBxE-690" value="" style="group;shadow=0;" parent="1" vertex="1" connectable="0">
          <mxGeometry x="632.69" y="280" width="207.30624999999998" height="80" as="geometry" />
        </mxCell>
        <mxCell id="sCxbNNpp0al_44tGgBxE-317" value="" style="rounded=1;whiteSpace=wrap;html=1;arcSize=5;container=0;fillColor=#f5f5f5;strokeColor=#666666;fontColor=#333333;shadow=1;" parent="sCxbNNpp0al_44tGgBxE-690" vertex="1">
          <mxGeometry width="201" height="80" as="geometry" />
        </mxCell>
        <mxCell id="sCxbNNpp0al_44tGgBxE-318" value="&lt;i&gt;I would like to send a wire transfer&lt;/i&gt;" style="text;html=1;align=left;verticalAlign=top;resizable=0;points=[];autosize=1;strokeColor=none;fillColor=none;container=0;" parent="sCxbNNpp0al_44tGgBxE-690" vertex="1">
          <mxGeometry x="7.306249999999977" y="30.10842105263157" width="200" height="30" as="geometry" />
        </mxCell>
        <mxCell id="sCxbNNpp0al_44tGgBxE-319" value="" style="endArrow=none;html=1;rounded=0;strokeWidth=0.5;" parent="sCxbNNpp0al_44tGgBxE-690" edge="1">
          <mxGeometry width="50" height="50" relative="1" as="geometry">
            <mxPoint y="29.63157894736844" as="sourcePoint" />
            <mxPoint x="201" y="30.105263157894797" as="targetPoint" />
          </mxGeometry>
        </mxCell>
        <mxCell id="sCxbNNpp0al_44tGgBxE-320" value="User Message" style="text;html=1;align=left;verticalAlign=top;resizable=0;points=[];autosize=1;strokeColor=none;fillColor=none;container=0;fontStyle=1" parent="sCxbNNpp0al_44tGgBxE-690" vertex="1">
          <mxGeometry x="7.306249999999977" y="1.4736842105263577" width="100" height="30" as="geometry" />
        </mxCell>
        <mxCell id="sCxbNNpp0al_44tGgBxE-739" value="" style="ellipse;whiteSpace=wrap;html=1;strokeColor=none;" parent="sCxbNNpp0al_44tGgBxE-690" vertex="1">
          <mxGeometry x="177.30999999999995" y="7.75" width="17.44" height="17.44" as="geometry" />
        </mxCell>
        <mxCell id="sCxbNNpp0al_44tGgBxE-740" value="" style="sketch=0;outlineConnect=0;fontColor=#232F3E;gradientColor=none;fillColor=#232F3D;strokeColor=none;dashed=0;verticalLabelPosition=bottom;verticalAlign=top;align=center;html=1;fontSize=12;fontStyle=0;aspect=fixed;pointerEvents=1;shape=mxgraph.aws4.user;" parent="sCxbNNpp0al_44tGgBxE-690" vertex="1">
          <mxGeometry x="181.04999999999995" y="11.470000000000027" width="10" height="10" as="geometry" />
        </mxCell>
        <mxCell id="sCxbNNpp0al_44tGgBxE-691" value="" style="group;shadow=0;" parent="1" vertex="1" connectable="0">
          <mxGeometry x="632.69" y="400" width="207.3062500000001" height="141" as="geometry" />
        </mxCell>
        <mxCell id="sCxbNNpp0al_44tGgBxE-324" value="" style="rounded=1;whiteSpace=wrap;html=1;arcSize=5;container=0;fillColor=#dae8fc;strokeColor=#6c8ebf;shadow=1;" parent="sCxbNNpp0al_44tGgBxE-691" vertex="1">
          <mxGeometry width="201" height="141" as="geometry" />
        </mxCell>
        <mxCell id="sCxbNNpp0al_44tGgBxE-325" value="&lt;div&gt;&lt;i&gt;Great. I will need the origin and&amp;nbsp;&lt;/i&gt;&lt;/div&gt;&lt;div&gt;&lt;i&gt;destination account. Would you&amp;nbsp;&lt;/i&gt;&lt;/div&gt;&lt;div&gt;&lt;i&gt;like to use the same accounts as&amp;nbsp;&lt;/i&gt;&lt;/div&gt;&lt;div&gt;&lt;i&gt;the last time?&amp;nbsp;&lt;/i&gt;&lt;/div&gt;" style="text;html=1;align=left;verticalAlign=top;resizable=0;points=[];autosize=1;strokeColor=none;fillColor=none;container=0;shadow=0;" parent="sCxbNNpp0al_44tGgBxE-691" vertex="1">
          <mxGeometry x="7.306250000000091" y="30.10842105263157" width="200" height="70" as="geometry" />
        </mxCell>
        <mxCell id="sCxbNNpp0al_44tGgBxE-326" value="&lt;div&gt;- Yes&lt;/div&gt;&lt;div&gt;- No&lt;/div&gt;" style="text;html=1;align=left;verticalAlign=top;resizable=0;points=[];autosize=1;strokeColor=none;fillColor=none;fontFamily=Helvetica;container=0;" parent="sCxbNNpp0al_44tGgBxE-691" vertex="1">
          <mxGeometry x="7.306250000000091" y="95.8947368421052" width="50" height="40" as="geometry" />
        </mxCell>
        <mxCell id="sCxbNNpp0al_44tGgBxE-327" value="" style="endArrow=none;html=1;rounded=0;strokeWidth=0.5;" parent="sCxbNNpp0al_44tGgBxE-691" edge="1">
          <mxGeometry width="50" height="50" relative="1" as="geometry">
            <mxPoint y="29.63157894736844" as="sourcePoint" />
            <mxPoint x="201" y="30.105263157894797" as="targetPoint" />
          </mxGeometry>
        </mxCell>
        <mxCell id="sCxbNNpp0al_44tGgBxE-328" value="" style="endArrow=none;html=1;rounded=0;strokeWidth=0.5;" parent="sCxbNNpp0al_44tGgBxE-691" edge="1">
          <mxGeometry width="50" height="50" relative="1" as="geometry">
            <mxPoint y="98.31578947368416" as="sourcePoint" />
            <mxPoint x="201" y="98.78947368421052" as="targetPoint" />
          </mxGeometry>
        </mxCell>
        <mxCell id="sCxbNNpp0al_44tGgBxE-329" value="Agent Message w/ Options" style="text;html=1;align=left;verticalAlign=top;resizable=0;points=[];autosize=1;strokeColor=none;fillColor=none;container=0;fontStyle=1" parent="sCxbNNpp0al_44tGgBxE-691" vertex="1">
          <mxGeometry x="7.306250000000091" y="1.4736842105263577" width="170" height="30" as="geometry" />
        </mxCell>
        <mxCell id="sCxbNNpp0al_44tGgBxE-736" value="" style="ellipse;whiteSpace=wrap;html=1;aspect=fixed;fillColor=#dae8fc;strokeColor=none;container=0;" parent="sCxbNNpp0al_44tGgBxE-691" vertex="1">
          <mxGeometry x="175.30999999999995" y="5.470000000000027" width="20" height="20" as="geometry" />
        </mxCell>
        <mxCell id="sCxbNNpp0al_44tGgBxE-737" value="" style="ellipse;whiteSpace=wrap;html=1;strokeColor=none;" parent="sCxbNNpp0al_44tGgBxE-691" vertex="1">
          <mxGeometry x="176.30999999999995" y="6.029999999999973" width="17.44" height="17.44" as="geometry" />
        </mxCell>
        <mxCell id="sCxbNNpp0al_44tGgBxE-738" value="" style="sketch=0;outlineConnect=0;fontColor=#232F3E;gradientColor=none;fillColor=#232F3D;strokeColor=none;dashed=0;verticalLabelPosition=bottom;verticalAlign=top;align=center;html=1;fontSize=12;fontStyle=0;aspect=fixed;pointerEvents=1;shape=mxgraph.aws4.chat;container=0;" parent="sCxbNNpp0al_44tGgBxE-691" vertex="1">
          <mxGeometry x="179.30999999999995" y="10.940000000000055" width="10.93" height="9.53" as="geometry" />
        </mxCell>
        <mxCell id="sCxbNNpp0al_44tGgBxE-358" style="edgeStyle=orthogonalEdgeStyle;rounded=0;orthogonalLoop=1;jettySize=auto;html=1;exitX=0.5;exitY=1;exitDx=0;exitDy=0;" parent="1" source="sCxbNNpp0al_44tGgBxE-334" edge="1">
          <mxGeometry relative="1" as="geometry">
            <mxPoint x="470.46153846153857" y="717" as="targetPoint" />
          </mxGeometry>
        </mxCell>
        <mxCell id="sCxbNNpp0al_44tGgBxE-334" value="" style="rounded=1;whiteSpace=wrap;html=1;arcSize=5;container=0;fillColor=#f5f5f5;fontColor=#333333;strokeColor=#666666;shadow=1;" parent="1" vertex="1">
          <mxGeometry x="370" y="597" width="201" height="80" as="geometry" />
        </mxCell>
        <mxCell id="sCxbNNpp0al_44tGgBxE-335" value="&lt;i&gt;Yes&lt;/i&gt;" style="text;html=1;align=left;verticalAlign=top;resizable=0;points=[];autosize=1;strokeColor=none;fillColor=none;container=0;" parent="1" vertex="1">
          <mxGeometry x="377.30625" y="627.1084210526316" width="40" height="30" as="geometry" />
        </mxCell>
        <mxCell id="sCxbNNpp0al_44tGgBxE-336" value="" style="endArrow=none;html=1;rounded=0;" parent="1" edge="1">
          <mxGeometry width="50" height="50" relative="1" as="geometry">
            <mxPoint x="370" y="626.6315789473684" as="sourcePoint" />
            <mxPoint x="571" y="627.1052631578948" as="targetPoint" />
          </mxGeometry>
        </mxCell>
        <mxCell id="sCxbNNpp0al_44tGgBxE-337" value="User Message" style="text;html=1;align=left;verticalAlign=top;resizable=0;points=[];autosize=1;strokeColor=none;fillColor=none;container=0;fontStyle=1" parent="1" vertex="1">
          <mxGeometry x="377.30625" y="598.4736842105264" width="100" height="30" as="geometry" />
        </mxCell>
        <mxCell id="sCxbNNpp0al_44tGgBxE-350" value="" style="rounded=1;whiteSpace=wrap;html=1;arcSize=5;container=0;fillColor=#dae8fc;strokeColor=#6c8ebf;" parent="1" vertex="1">
          <mxGeometry x="370" y="717" width="200.99999999999994" height="170" as="geometry" />
        </mxCell>
        <mxCell id="sCxbNNpp0al_44tGgBxE-351" value="&lt;div&gt;&lt;i&gt;Here is the information from your&lt;/i&gt;&lt;/div&gt;&lt;div&gt;&lt;i&gt;last wire:&lt;/i&gt;&lt;/div&gt;&lt;div&gt;&lt;i&gt;- Source Acct: 123435&lt;/i&gt;&lt;/div&gt;&lt;div&gt;&lt;i&gt;- Target Acct: 34524&lt;br&gt;Does this look correct?&lt;/i&gt;&lt;/div&gt;" style="text;html=1;align=left;verticalAlign=top;resizable=0;points=[];autosize=1;strokeColor=none;fillColor=none;container=0;" parent="1" vertex="1">
          <mxGeometry x="377.30625000000003" y="753.3009331840238" width="200" height="90" as="geometry" />
        </mxCell>
        <mxCell id="sCxbNNpp0al_44tGgBxE-352" value="&lt;div&gt;- Yes&lt;/div&gt;&lt;div&gt;- No&lt;/div&gt;" style="text;html=1;align=left;verticalAlign=top;resizable=0;points=[];autosize=1;strokeColor=none;fillColor=none;fontFamily=Helvetica;container=0;" parent="1" vertex="1">
          <mxGeometry x="377.30625000000003" y="840.7383351997013" width="50" height="40" as="geometry" />
        </mxCell>
        <mxCell id="sCxbNNpp0al_44tGgBxE-353" value="" style="endArrow=none;html=1;rounded=0;" parent="1" edge="1">
          <mxGeometry width="50" height="50" relative="1" as="geometry">
            <mxPoint x="370.00000000000006" y="752.726017170586" as="sourcePoint" />
            <mxPoint x="571" y="753.2971257932065" as="targetPoint" />
          </mxGeometry>
        </mxCell>
        <mxCell id="sCxbNNpp0al_44tGgBxE-354" value="" style="endArrow=none;html=1;rounded=0;" parent="1" edge="1">
          <mxGeometry width="50" height="50" relative="1" as="geometry">
            <mxPoint x="370.00000000000006" y="838.8346397909668" as="sourcePoint" />
            <mxPoint x="571" y="839.4057484135872" as="targetPoint" />
          </mxGeometry>
        </mxCell>
        <mxCell id="sCxbNNpp0al_44tGgBxE-355" value="Agent Message w/ Options" style="text;html=1;align=left;verticalAlign=top;resizable=0;points=[];autosize=1;strokeColor=none;fillColor=none;container=0;fontStyle=1" parent="1" vertex="1">
          <mxGeometry x="377.30625000000003" y="718.7767823814856" width="170" height="30" as="geometry" />
        </mxCell>
        <mxCell id="sCxbNNpp0al_44tGgBxE-360" value="" style="rounded=1;whiteSpace=wrap;html=1;arcSize=5;container=0;fillColor=#f5f5f5;fontColor=#333333;strokeColor=#666666;shadow=1;" parent="1" vertex="1">
          <mxGeometry x="230" y="927" width="201" height="80" as="geometry" />
        </mxCell>
        <mxCell id="sCxbNNpp0al_44tGgBxE-362" value="" style="endArrow=none;html=1;rounded=0;" parent="1" edge="1">
          <mxGeometry width="50" height="50" relative="1" as="geometry">
            <mxPoint x="230" y="956.6315789473684" as="sourcePoint" />
            <mxPoint x="431" y="957.1052631578948" as="targetPoint" />
          </mxGeometry>
        </mxCell>
        <mxCell id="sCxbNNpp0al_44tGgBxE-367" value="" style="rounded=1;whiteSpace=wrap;html=1;arcSize=5;container=0;fillColor=#f5f5f5;fontColor=#333333;strokeColor=#666666;shadow=1;" parent="1" vertex="1">
          <mxGeometry x="520" y="927" width="201" height="80" as="geometry" />
        </mxCell>
        <mxCell id="sCxbNNpp0al_44tGgBxE-368" value="&lt;i&gt;No&lt;/i&gt;" style="text;html=1;align=left;verticalAlign=top;resizable=0;points=[];autosize=1;strokeColor=none;fillColor=none;container=0;" parent="1" vertex="1">
          <mxGeometry x="527.30625" y="957.1084210526316" width="40" height="30" as="geometry" />
        </mxCell>
        <mxCell id="sCxbNNpp0al_44tGgBxE-369" value="" style="endArrow=none;html=1;rounded=0;" parent="1" edge="1">
          <mxGeometry width="50" height="50" relative="1" as="geometry">
            <mxPoint x="520" y="956.6315789473684" as="sourcePoint" />
            <mxPoint x="721" y="957.1052631578948" as="targetPoint" />
          </mxGeometry>
        </mxCell>
        <mxCell id="sCxbNNpp0al_44tGgBxE-370" value="User Message" style="text;html=1;align=left;verticalAlign=top;resizable=0;points=[];autosize=1;strokeColor=none;fillColor=none;container=0;fontStyle=1" parent="1" vertex="1">
          <mxGeometry x="527.30625" y="928.4736842105264" width="100" height="30" as="geometry" />
        </mxCell>
        <mxCell id="sCxbNNpp0al_44tGgBxE-341" value="" style="rounded=1;whiteSpace=wrap;html=1;arcSize=5;container=0;fillColor=#f5f5f5;fontColor=#333333;strokeColor=#666666;shadow=1;" parent="1" vertex="1">
          <mxGeometry x="840" y="597" width="201" height="80" as="geometry" />
        </mxCell>
        <mxCell id="sCxbNNpp0al_44tGgBxE-342" value="&lt;i&gt;No&lt;/i&gt;" style="text;html=1;align=left;verticalAlign=top;resizable=0;points=[];autosize=1;strokeColor=none;fillColor=none;container=0;" parent="1" vertex="1">
          <mxGeometry x="847.30625" y="627.1084210526316" width="40" height="30" as="geometry" />
        </mxCell>
        <mxCell id="sCxbNNpp0al_44tGgBxE-343" value="" style="endArrow=none;html=1;rounded=0;" parent="1" edge="1">
          <mxGeometry width="50" height="50" relative="1" as="geometry">
            <mxPoint x="840" y="626.6315789473684" as="sourcePoint" />
            <mxPoint x="1041" y="627.1052631578948" as="targetPoint" />
          </mxGeometry>
        </mxCell>
        <mxCell id="sCxbNNpp0al_44tGgBxE-344" value="User Message" style="text;html=1;align=left;verticalAlign=top;resizable=0;points=[];autosize=1;strokeColor=none;fillColor=none;container=0;fontStyle=1" parent="1" vertex="1">
          <mxGeometry x="847.30625" y="598.4736842105264" width="100" height="30" as="geometry" />
        </mxCell>
        <mxCell id="sCxbNNpp0al_44tGgBxE-514" value="" style="rounded=1;whiteSpace=wrap;html=1;arcSize=5;container=0;fillColor=#dae8fc;strokeColor=#6c8ebf;" parent="1" vertex="1">
          <mxGeometry x="840" y="717" width="201" height="140" as="geometry" />
        </mxCell>
        <mxCell id="sCxbNNpp0al_44tGgBxE-515" value="&lt;div&gt;&lt;i&gt;Please provide the source account&lt;/i&gt;&lt;/div&gt;&lt;div&gt;&lt;i&gt;the destination bank code and the&lt;/i&gt;&lt;/div&gt;&lt;div&gt;&lt;i&gt;destination account&lt;/i&gt;&lt;/div&gt;" style="text;html=1;align=left;verticalAlign=top;resizable=0;points=[];autosize=1;strokeColor=none;fillColor=none;container=0;" parent="1" vertex="1">
          <mxGeometry x="847.3062500000001" y="747.1084210526316" width="210" height="60" as="geometry" />
        </mxCell>
        <mxCell id="sCxbNNpp0al_44tGgBxE-516" value="- Source Acct&lt;br&gt;- Destination Bank Code&lt;br&gt;- Destination Acct" style="text;html=1;align=left;verticalAlign=top;resizable=0;points=[];autosize=1;strokeColor=none;fillColor=none;fontFamily=Helvetica;container=0;" parent="1" vertex="1">
          <mxGeometry x="847.3062500000001" y="798.8947368421052" width="150" height="60" as="geometry" />
        </mxCell>
        <mxCell id="sCxbNNpp0al_44tGgBxE-517" value="" style="endArrow=none;html=1;rounded=0;" parent="1" edge="1">
          <mxGeometry width="50" height="50" relative="1" as="geometry">
            <mxPoint x="840" y="746.6315789473684" as="sourcePoint" />
            <mxPoint x="1041" y="747.1052631578948" as="targetPoint" />
          </mxGeometry>
        </mxCell>
        <mxCell id="sCxbNNpp0al_44tGgBxE-518" value="" style="endArrow=none;html=1;rounded=0;" parent="1" edge="1">
          <mxGeometry width="50" height="50" relative="1" as="geometry">
            <mxPoint x="840" y="797.3157894736842" as="sourcePoint" />
            <mxPoint x="1041" y="797.7894736842105" as="targetPoint" />
          </mxGeometry>
        </mxCell>
        <mxCell id="sCxbNNpp0al_44tGgBxE-519" value="Agent Data Request" style="text;html=1;align=left;verticalAlign=top;resizable=0;points=[];autosize=1;strokeColor=none;fillColor=none;container=0;fontStyle=1" parent="1" vertex="1">
          <mxGeometry x="847.3062500000001" y="718.4736842105264" width="130" height="30" as="geometry" />
        </mxCell>
        <mxCell id="sCxbNNpp0al_44tGgBxE-524" value="" style="rounded=1;whiteSpace=wrap;html=1;arcSize=5;container=0;fillColor=#f5f5f5;fontColor=#333333;strokeColor=#666666;shadow=1;" parent="1" vertex="1">
          <mxGeometry x="840" y="897" width="201" height="90" as="geometry" />
        </mxCell>
        <mxCell id="sCxbNNpp0al_44tGgBxE-525" value="&lt;div&gt;&lt;i&gt;My source acct is 123454, the&amp;nbsp;&lt;/i&gt;&lt;/div&gt;&lt;div&gt;&lt;i&gt;destination bank code is ABXYZ&lt;/i&gt;&lt;/div&gt;&lt;div&gt;&lt;i&gt;and the destination acct is 546767&lt;/i&gt;&lt;/div&gt;" style="text;html=1;align=left;verticalAlign=top;resizable=0;points=[];autosize=1;strokeColor=none;fillColor=none;container=0;" parent="1" vertex="1">
          <mxGeometry x="847.3063760821422" y="927.072193731528" width="210" height="60" as="geometry" />
        </mxCell>
        <mxCell id="sCxbNNpp0al_44tGgBxE-526" value="" style="endArrow=none;html=1;rounded=0;" parent="1" edge="1">
          <mxGeometry width="50" height="50" relative="1" as="geometry">
            <mxPoint x="840" y="926.5959253764471" as="sourcePoint" />
            <mxPoint x="1041.0034686070926" y="927.0690396364614" as="targetPoint" />
          </mxGeometry>
        </mxCell>
        <mxCell id="sCxbNNpp0al_44tGgBxE-527" value="User Message" style="text;html=1;align=left;verticalAlign=top;resizable=0;points=[];autosize=1;strokeColor=none;fillColor=none;container=0;fontStyle=1" parent="1" vertex="1">
          <mxGeometry x="847.3063760821422" y="898.4719110311555" width="100" height="30" as="geometry" />
        </mxCell>
        <mxCell id="sCxbNNpp0al_44tGgBxE-376" value="" style="rounded=1;whiteSpace=wrap;html=1;arcSize=5;container=0;fillColor=#dae8fc;strokeColor=#6c8ebf;shadow=1;" parent="1" vertex="1">
          <mxGeometry x="230" y="1047" width="201" height="135" as="geometry" />
        </mxCell>
        <mxCell id="sCxbNNpp0al_44tGgBxE-377" value="&lt;div&gt;&lt;i&gt;What amount would you like to&lt;/i&gt;&lt;/div&gt;&lt;div&gt;&lt;i&gt;send?&lt;/i&gt;&lt;/div&gt;" style="text;html=1;align=left;verticalAlign=top;resizable=0;points=[];autosize=1;strokeColor=none;fillColor=none;container=0;" parent="1" vertex="1">
          <mxGeometry x="237.30625000000006" y="1077.1084210526315" width="190" height="40" as="geometry" />
        </mxCell>
        <mxCell id="sCxbNNpp0al_44tGgBxE-378" value="- Amount" style="text;html=1;align=left;verticalAlign=top;resizable=0;points=[];autosize=1;strokeColor=none;fillColor=none;fontFamily=Helvetica;container=0;" parent="1" vertex="1">
          <mxGeometry x="237.30625000000006" y="1128.8947368421052" width="70" height="30" as="geometry" />
        </mxCell>
        <mxCell id="sCxbNNpp0al_44tGgBxE-379" value="" style="endArrow=none;html=1;rounded=0;" parent="1" edge="1">
          <mxGeometry width="50" height="50" relative="1" as="geometry">
            <mxPoint x="230.00000000000006" y="1076.6315789473683" as="sourcePoint" />
            <mxPoint x="431.00000000000006" y="1077.1052631578948" as="targetPoint" />
          </mxGeometry>
        </mxCell>
        <mxCell id="sCxbNNpp0al_44tGgBxE-380" value="" style="endArrow=none;html=1;rounded=0;" parent="1" edge="1">
          <mxGeometry width="50" height="50" relative="1" as="geometry">
            <mxPoint x="230.00000000000006" y="1127.3157894736842" as="sourcePoint" />
            <mxPoint x="431.00000000000006" y="1127.7894736842104" as="targetPoint" />
          </mxGeometry>
        </mxCell>
        <mxCell id="sCxbNNpp0al_44tGgBxE-381" value="Agent Data Request" style="text;html=1;align=left;verticalAlign=top;resizable=0;points=[];autosize=1;strokeColor=none;fillColor=none;container=0;fontStyle=1" parent="1" vertex="1">
          <mxGeometry x="237.30625000000006" y="1048.4736842105262" width="130" height="30" as="geometry" />
        </mxCell>
        <mxCell id="sCxbNNpp0al_44tGgBxE-382" value="" style="ellipse;whiteSpace=wrap;html=1;aspect=fixed;fillColor=#dae8fc;strokeColor=none;container=0;" parent="1" vertex="1">
          <mxGeometry x="405.00000000000006" y="1052" width="20" height="20" as="geometry" />
        </mxCell>
        <mxCell id="sCxbNNpp0al_44tGgBxE-535" value="" style="rounded=1;whiteSpace=wrap;html=1;arcSize=5;container=0;fillColor=#dae8fc;strokeColor=#6c8ebf;shadow=1;" parent="1" vertex="1">
          <mxGeometry x="840" y="1027" width="201" height="135" as="geometry" />
        </mxCell>
        <mxCell id="sCxbNNpp0al_44tGgBxE-536" value="&lt;div&gt;&lt;i&gt;What amount would you like to&lt;/i&gt;&lt;/div&gt;&lt;div&gt;&lt;i&gt;send?&lt;/i&gt;&lt;/div&gt;" style="text;html=1;align=left;verticalAlign=top;resizable=0;points=[];autosize=1;strokeColor=none;fillColor=none;container=0;" parent="1" vertex="1">
          <mxGeometry x="847.3062500000001" y="1057.1084210526315" width="190" height="40" as="geometry" />
        </mxCell>
        <mxCell id="sCxbNNpp0al_44tGgBxE-537" value="- Amount" style="text;html=1;align=left;verticalAlign=top;resizable=0;points=[];autosize=1;strokeColor=none;fillColor=none;fontFamily=Helvetica;container=0;" parent="1" vertex="1">
          <mxGeometry x="847.3062500000001" y="1108.8947368421052" width="70" height="30" as="geometry" />
        </mxCell>
        <mxCell id="sCxbNNpp0al_44tGgBxE-538" value="" style="endArrow=none;html=1;rounded=0;" parent="1" edge="1">
          <mxGeometry width="50" height="50" relative="1" as="geometry">
            <mxPoint x="840" y="1056.6315789473683" as="sourcePoint" />
            <mxPoint x="1041" y="1057.1052631578948" as="targetPoint" />
          </mxGeometry>
        </mxCell>
        <mxCell id="sCxbNNpp0al_44tGgBxE-539" value="" style="endArrow=none;html=1;rounded=0;" parent="1" edge="1">
          <mxGeometry width="50" height="50" relative="1" as="geometry">
            <mxPoint x="840" y="1107.3157894736842" as="sourcePoint" />
            <mxPoint x="1041" y="1107.7894736842104" as="targetPoint" />
          </mxGeometry>
        </mxCell>
        <mxCell id="sCxbNNpp0al_44tGgBxE-540" value="Agent Data Request" style="text;html=1;align=left;verticalAlign=top;resizable=0;points=[];autosize=1;strokeColor=none;fillColor=none;container=0;fontStyle=1" parent="1" vertex="1">
          <mxGeometry x="847.3062500000001" y="1028.4736842105262" width="130" height="30" as="geometry" />
        </mxCell>
        <mxCell id="sCxbNNpp0al_44tGgBxE-387" value="" style="rounded=1;whiteSpace=wrap;html=1;arcSize=5;container=0;fillColor=#f5f5f5;fontColor=#333333;strokeColor=#666666;shadow=1;" parent="1" vertex="1">
          <mxGeometry x="230" y="1227" width="201" height="80" as="geometry" />
        </mxCell>
        <mxCell id="sCxbNNpp0al_44tGgBxE-388" value="&lt;i&gt;500&lt;/i&gt;" style="text;html=1;align=left;verticalAlign=top;resizable=0;points=[];autosize=1;strokeColor=none;fillColor=none;container=0;" parent="1" vertex="1">
          <mxGeometry x="237.30625" y="1257.1084210526315" width="40" height="30" as="geometry" />
        </mxCell>
        <mxCell id="sCxbNNpp0al_44tGgBxE-389" value="" style="endArrow=none;html=1;rounded=0;" parent="1" edge="1">
          <mxGeometry width="50" height="50" relative="1" as="geometry">
            <mxPoint x="230" y="1256.6315789473683" as="sourcePoint" />
            <mxPoint x="431" y="1257.1052631578948" as="targetPoint" />
          </mxGeometry>
        </mxCell>
        <mxCell id="sCxbNNpp0al_44tGgBxE-390" value="User Message" style="text;html=1;align=left;verticalAlign=top;resizable=0;points=[];autosize=1;strokeColor=none;fillColor=none;container=0;fontStyle=1" parent="1" vertex="1">
          <mxGeometry x="237.30625" y="1228.4736842105262" width="100" height="30" as="geometry" />
        </mxCell>
        <mxCell id="sCxbNNpp0al_44tGgBxE-544" value="" style="rounded=1;whiteSpace=wrap;html=1;arcSize=5;container=0;fillColor=#f5f5f5;fontColor=#333333;strokeColor=#666666;shadow=1;" parent="1" vertex="1">
          <mxGeometry x="840" y="1207" width="201" height="80" as="geometry" />
        </mxCell>
        <mxCell id="sCxbNNpp0al_44tGgBxE-545" value="&lt;i&gt;500&lt;/i&gt;" style="text;html=1;align=left;verticalAlign=top;resizable=0;points=[];autosize=1;strokeColor=none;fillColor=none;container=0;" parent="1" vertex="1">
          <mxGeometry x="847.30625" y="1237.1084210526315" width="40" height="30" as="geometry" />
        </mxCell>
        <mxCell id="sCxbNNpp0al_44tGgBxE-546" value="" style="endArrow=none;html=1;rounded=0;" parent="1" edge="1">
          <mxGeometry width="50" height="50" relative="1" as="geometry">
            <mxPoint x="840" y="1236.6315789473683" as="sourcePoint" />
            <mxPoint x="1041" y="1237.1052631578948" as="targetPoint" />
          </mxGeometry>
        </mxCell>
        <mxCell id="sCxbNNpp0al_44tGgBxE-547" value="User Message" style="text;html=1;align=left;verticalAlign=top;resizable=0;points=[];autosize=1;strokeColor=none;fillColor=none;container=0;fontStyle=1" parent="1" vertex="1">
          <mxGeometry x="847.30625" y="1208.4736842105262" width="100" height="30" as="geometry" />
        </mxCell>
        <mxCell id="sCxbNNpp0al_44tGgBxE-494" value="" style="rounded=1;whiteSpace=wrap;html=1;arcSize=5;container=0;fillColor=#f5f5f5;fontColor=#333333;strokeColor=#666666;shadow=1;" parent="1" vertex="1">
          <mxGeometry x="230" y="1597" width="201" height="80" as="geometry" />
        </mxCell>
        <mxCell id="sCxbNNpp0al_44tGgBxE-495" value="&lt;i&gt;It looks good&lt;/i&gt;" style="text;html=1;align=left;verticalAlign=top;resizable=0;points=[];autosize=1;strokeColor=none;fillColor=none;container=0;" parent="1" vertex="1">
          <mxGeometry x="237.30625" y="1627.1084210526315" width="90" height="30" as="geometry" />
        </mxCell>
        <mxCell id="sCxbNNpp0al_44tGgBxE-496" value="" style="endArrow=none;html=1;rounded=0;" parent="1" edge="1">
          <mxGeometry width="50" height="50" relative="1" as="geometry">
            <mxPoint x="230" y="1626.6315789473683" as="sourcePoint" />
            <mxPoint x="431" y="1627.1052631578948" as="targetPoint" />
          </mxGeometry>
        </mxCell>
        <mxCell id="sCxbNNpp0al_44tGgBxE-497" value="User Message" style="text;html=1;align=left;verticalAlign=top;resizable=0;points=[];autosize=1;strokeColor=none;fillColor=none;container=0;fontStyle=1" parent="1" vertex="1">
          <mxGeometry x="237.30625" y="1598.4736842105262" width="100" height="30" as="geometry" />
        </mxCell>
        <mxCell id="sCxbNNpp0al_44tGgBxE-569" value="" style="rounded=1;whiteSpace=wrap;html=1;arcSize=5;container=0;fillColor=#f5f5f5;fontColor=#333333;strokeColor=#666666;shadow=1;" parent="1" vertex="1">
          <mxGeometry x="840" y="1577" width="201" height="80" as="geometry" />
        </mxCell>
        <mxCell id="sCxbNNpp0al_44tGgBxE-570" value="&lt;i&gt;Yes&lt;/i&gt;" style="text;html=1;align=left;verticalAlign=top;resizable=0;points=[];autosize=1;strokeColor=none;fillColor=none;container=0;" parent="1" vertex="1">
          <mxGeometry x="847.30625" y="1607.1084210526315" width="40" height="30" as="geometry" />
        </mxCell>
        <mxCell id="sCxbNNpp0al_44tGgBxE-571" value="" style="endArrow=none;html=1;rounded=0;" parent="1" edge="1">
          <mxGeometry width="50" height="50" relative="1" as="geometry">
            <mxPoint x="840" y="1606.6315789473683" as="sourcePoint" />
            <mxPoint x="1041" y="1607.1052631578948" as="targetPoint" />
          </mxGeometry>
        </mxCell>
        <mxCell id="sCxbNNpp0al_44tGgBxE-572" value="User Message" style="text;html=1;align=left;verticalAlign=top;resizable=0;points=[];autosize=1;strokeColor=none;fillColor=none;container=0;fontStyle=1" parent="1" vertex="1">
          <mxGeometry x="847.30625" y="1578.4736842105262" width="100" height="30" as="geometry" />
        </mxCell>
        <mxCell id="sCxbNNpp0al_44tGgBxE-487" value="" style="rounded=1;whiteSpace=wrap;html=1;arcSize=5;container=0;fillColor=#dae8fc;strokeColor=#6c8ebf;shadow=1;" parent="1" vertex="1">
          <mxGeometry x="230" y="1717" width="201" height="80" as="geometry" />
        </mxCell>
        <mxCell id="sCxbNNpp0al_44tGgBxE-488" value="&lt;i&gt;I have completed your transfer&lt;/i&gt;" style="text;html=1;align=left;verticalAlign=top;resizable=0;points=[];autosize=1;strokeColor=none;fillColor=none;container=0;" parent="1" vertex="1">
          <mxGeometry x="237.30625" y="1747.1084210526315" width="190" height="30" as="geometry" />
        </mxCell>
        <mxCell id="sCxbNNpp0al_44tGgBxE-489" value="" style="endArrow=none;html=1;rounded=0;" parent="1" edge="1">
          <mxGeometry width="50" height="50" relative="1" as="geometry">
            <mxPoint x="230" y="1746.6315789473683" as="sourcePoint" />
            <mxPoint x="431" y="1747.1052631578948" as="targetPoint" />
          </mxGeometry>
        </mxCell>
        <mxCell id="sCxbNNpp0al_44tGgBxE-490" value="Agent Message" style="text;html=1;align=left;verticalAlign=top;resizable=0;points=[];autosize=1;strokeColor=none;fillColor=none;container=0;fontStyle=1" parent="1" vertex="1">
          <mxGeometry x="237.30625" y="1718.4736842105262" width="110" height="30" as="geometry" />
        </mxCell>
        <mxCell id="sCxbNNpp0al_44tGgBxE-562" value="" style="rounded=1;whiteSpace=wrap;html=1;arcSize=5;container=0;fillColor=#dae8fc;strokeColor=#6c8ebf;shadow=1;" parent="1" vertex="1">
          <mxGeometry x="840" y="1697" width="201" height="80" as="geometry" />
        </mxCell>
        <mxCell id="sCxbNNpp0al_44tGgBxE-563" value="&lt;i&gt;I have completed your transfer&lt;/i&gt;" style="text;html=1;align=left;verticalAlign=top;resizable=0;points=[];autosize=1;strokeColor=none;fillColor=none;container=0;" parent="1" vertex="1">
          <mxGeometry x="847.30625" y="1727.1084210526315" width="190" height="30" as="geometry" />
        </mxCell>
        <mxCell id="sCxbNNpp0al_44tGgBxE-564" value="" style="endArrow=none;html=1;rounded=0;" parent="1" edge="1">
          <mxGeometry width="50" height="50" relative="1" as="geometry">
            <mxPoint x="840" y="1726.6315789473683" as="sourcePoint" />
            <mxPoint x="1041" y="1727.1052631578948" as="targetPoint" />
          </mxGeometry>
        </mxCell>
        <mxCell id="sCxbNNpp0al_44tGgBxE-692" value="" style="ellipse;whiteSpace=wrap;html=1;strokeColor=none;" parent="1" vertex="1">
          <mxGeometry x="406" y="1052.56" width="17.44" height="17.44" as="geometry" />
        </mxCell>
        <mxCell id="sCxbNNpp0al_44tGgBxE-565" value="Agent Message" style="text;html=1;align=left;verticalAlign=top;resizable=0;points=[];autosize=1;strokeColor=none;fillColor=none;container=0;fontStyle=1" parent="1" vertex="1">
          <mxGeometry x="847.30625" y="1698.4736842105262" width="110" height="30" as="geometry" />
        </mxCell>
        <mxCell id="sCxbNNpp0al_44tGgBxE-383" value="" style="sketch=0;outlineConnect=0;fontColor=#232F3E;gradientColor=none;fillColor=#232F3D;strokeColor=none;dashed=0;verticalLabelPosition=bottom;verticalAlign=top;align=center;html=1;fontSize=12;fontStyle=0;aspect=fixed;pointerEvents=1;shape=mxgraph.aws4.chat;container=0;" parent="1" vertex="1">
          <mxGeometry x="409" y="1057.47" width="10.93" height="9.53" as="geometry" />
        </mxCell>
        <mxCell id="sCxbNNpp0al_44tGgBxE-695" value="" style="ellipse;whiteSpace=wrap;html=1;strokeColor=none;" parent="1" vertex="1">
          <mxGeometry x="406" y="933.28" width="17.44" height="17.44" as="geometry" />
        </mxCell>
        <mxCell id="sCxbNNpp0al_44tGgBxE-698" value="" style="sketch=0;outlineConnect=0;fontColor=#232F3E;gradientColor=none;fillColor=#232F3D;strokeColor=none;dashed=0;verticalLabelPosition=bottom;verticalAlign=top;align=center;html=1;fontSize=12;fontStyle=0;aspect=fixed;pointerEvents=1;shape=mxgraph.aws4.user;" parent="1" vertex="1">
          <mxGeometry x="409.74" y="937" width="10" height="10" as="geometry" />
        </mxCell>
        <mxCell id="sCxbNNpp0al_44tGgBxE-699" value="" style="ellipse;whiteSpace=wrap;html=1;strokeColor=none;" parent="1" vertex="1">
          <mxGeometry x="700" y="933.28" width="17.44" height="17.44" as="geometry" />
        </mxCell>
        <mxCell id="sCxbNNpp0al_44tGgBxE-700" value="" style="sketch=0;outlineConnect=0;fontColor=#232F3E;gradientColor=none;fillColor=#232F3D;strokeColor=none;dashed=0;verticalLabelPosition=bottom;verticalAlign=top;align=center;html=1;fontSize=12;fontStyle=0;aspect=fixed;pointerEvents=1;shape=mxgraph.aws4.user;" parent="1" vertex="1">
          <mxGeometry x="703.74" y="937" width="10" height="10" as="geometry" />
        </mxCell>
        <mxCell id="sCxbNNpp0al_44tGgBxE-701" value="" style="ellipse;whiteSpace=wrap;html=1;strokeColor=none;" parent="1" vertex="1">
          <mxGeometry x="407.56" y="1234.75" width="17.44" height="17.44" as="geometry" />
        </mxCell>
        <mxCell id="sCxbNNpp0al_44tGgBxE-702" value="" style="sketch=0;outlineConnect=0;fontColor=#232F3E;gradientColor=none;fillColor=#232F3D;strokeColor=none;dashed=0;verticalLabelPosition=bottom;verticalAlign=top;align=center;html=1;fontSize=12;fontStyle=0;aspect=fixed;pointerEvents=1;shape=mxgraph.aws4.user;" parent="1" vertex="1">
          <mxGeometry x="411.3" y="1238.47" width="10" height="10" as="geometry" />
        </mxCell>
        <mxCell id="sCxbNNpp0al_44tGgBxE-703" value="" style="ellipse;whiteSpace=wrap;html=1;strokeColor=none;" parent="1" vertex="1">
          <mxGeometry x="408" y="1603.75" width="17.44" height="17.44" as="geometry" />
        </mxCell>
        <mxCell id="sCxbNNpp0al_44tGgBxE-704" value="" style="sketch=0;outlineConnect=0;fontColor=#232F3E;gradientColor=none;fillColor=#232F3D;strokeColor=none;dashed=0;verticalLabelPosition=bottom;verticalAlign=top;align=center;html=1;fontSize=12;fontStyle=0;aspect=fixed;pointerEvents=1;shape=mxgraph.aws4.user;" parent="1" vertex="1">
          <mxGeometry x="411.74" y="1607.47" width="10" height="10" as="geometry" />
        </mxCell>
        <mxCell id="sCxbNNpp0al_44tGgBxE-705" value="" style="ellipse;whiteSpace=wrap;html=1;strokeColor=none;" parent="1" vertex="1">
          <mxGeometry x="1020" y="1582.75" width="17.44" height="17.44" as="geometry" />
        </mxCell>
        <mxCell id="sCxbNNpp0al_44tGgBxE-706" value="" style="sketch=0;outlineConnect=0;fontColor=#232F3E;gradientColor=none;fillColor=#232F3D;strokeColor=none;dashed=0;verticalLabelPosition=bottom;verticalAlign=top;align=center;html=1;fontSize=12;fontStyle=0;aspect=fixed;pointerEvents=1;shape=mxgraph.aws4.user;" parent="1" vertex="1">
          <mxGeometry x="1023.74" y="1586.47" width="10" height="10" as="geometry" />
        </mxCell>
        <mxCell id="sCxbNNpp0al_44tGgBxE-707" value="" style="ellipse;whiteSpace=wrap;html=1;strokeColor=none;" parent="1" vertex="1">
          <mxGeometry x="1018.06" y="1214.75" width="17.44" height="17.44" as="geometry" />
        </mxCell>
        <mxCell id="sCxbNNpp0al_44tGgBxE-708" value="" style="sketch=0;outlineConnect=0;fontColor=#232F3E;gradientColor=none;fillColor=#232F3D;strokeColor=none;dashed=0;verticalLabelPosition=bottom;verticalAlign=top;align=center;html=1;fontSize=12;fontStyle=0;aspect=fixed;pointerEvents=1;shape=mxgraph.aws4.user;" parent="1" vertex="1">
          <mxGeometry x="1021.8" y="1218.47" width="10" height="10" as="geometry" />
        </mxCell>
        <mxCell id="sCxbNNpp0al_44tGgBxE-709" value="" style="ellipse;whiteSpace=wrap;html=1;strokeColor=none;" parent="1" vertex="1">
          <mxGeometry x="1018.02" y="902.75" width="17.44" height="17.44" as="geometry" />
        </mxCell>
        <mxCell id="sCxbNNpp0al_44tGgBxE-710" value="" style="sketch=0;outlineConnect=0;fontColor=#232F3E;gradientColor=none;fillColor=#232F3D;strokeColor=none;dashed=0;verticalLabelPosition=bottom;verticalAlign=top;align=center;html=1;fontSize=12;fontStyle=0;aspect=fixed;pointerEvents=1;shape=mxgraph.aws4.user;" parent="1" vertex="1">
          <mxGeometry x="1021.76" y="906.47" width="10" height="10" as="geometry" />
        </mxCell>
        <mxCell id="sCxbNNpp0al_44tGgBxE-711" value="" style="ellipse;whiteSpace=wrap;html=1;strokeColor=none;" parent="1" vertex="1">
          <mxGeometry x="1016.01" y="604.75" width="17.44" height="17.44" as="geometry" />
        </mxCell>
        <mxCell id="sCxbNNpp0al_44tGgBxE-712" value="" style="sketch=0;outlineConnect=0;fontColor=#232F3E;gradientColor=none;fillColor=#232F3D;strokeColor=none;dashed=0;verticalLabelPosition=bottom;verticalAlign=top;align=center;html=1;fontSize=12;fontStyle=0;aspect=fixed;pointerEvents=1;shape=mxgraph.aws4.user;" parent="1" vertex="1">
          <mxGeometry x="1019.75" y="608.47" width="10" height="10" as="geometry" />
        </mxCell>
        <mxCell id="sCxbNNpp0al_44tGgBxE-713" value="" style="ellipse;whiteSpace=wrap;html=1;strokeColor=none;" parent="1" vertex="1">
          <mxGeometry x="546.28" y="601.03" width="17.44" height="17.44" as="geometry" />
        </mxCell>
        <mxCell id="sCxbNNpp0al_44tGgBxE-714" value="" style="sketch=0;outlineConnect=0;fontColor=#232F3E;gradientColor=none;fillColor=#232F3D;strokeColor=none;dashed=0;verticalLabelPosition=bottom;verticalAlign=top;align=center;html=1;fontSize=12;fontStyle=0;aspect=fixed;pointerEvents=1;shape=mxgraph.aws4.user;" parent="1" vertex="1">
          <mxGeometry x="550.02" y="604.75" width="10" height="10" as="geometry" />
        </mxCell>
        <mxCell id="sCxbNNpp0al_44tGgBxE-715" value="" style="ellipse;whiteSpace=wrap;html=1;aspect=fixed;fillColor=#dae8fc;strokeColor=none;container=0;" parent="1" vertex="1">
          <mxGeometry x="405.31" y="1353.1100000000001" width="20" height="20" as="geometry" />
        </mxCell>
        <mxCell id="sCxbNNpp0al_44tGgBxE-716" value="" style="ellipse;whiteSpace=wrap;html=1;strokeColor=none;" parent="1" vertex="1">
          <mxGeometry x="406.30999999999995" y="1353.67" width="17.44" height="17.44" as="geometry" />
        </mxCell>
        <mxCell id="sCxbNNpp0al_44tGgBxE-717" value="" style="sketch=0;outlineConnect=0;fontColor=#232F3E;gradientColor=none;fillColor=#232F3D;strokeColor=none;dashed=0;verticalLabelPosition=bottom;verticalAlign=top;align=center;html=1;fontSize=12;fontStyle=0;aspect=fixed;pointerEvents=1;shape=mxgraph.aws4.chat;container=0;" parent="1" vertex="1">
          <mxGeometry x="409.30999999999995" y="1358.58" width="10.93" height="9.53" as="geometry" />
        </mxCell>
        <mxCell id="sCxbNNpp0al_44tGgBxE-718" value="" style="ellipse;whiteSpace=wrap;html=1;aspect=fixed;fillColor=#dae8fc;strokeColor=none;container=0;" parent="1" vertex="1">
          <mxGeometry x="1015.76" y="1332.11" width="20" height="20" as="geometry" />
        </mxCell>
        <mxCell id="sCxbNNpp0al_44tGgBxE-719" value="" style="ellipse;whiteSpace=wrap;html=1;strokeColor=none;" parent="1" vertex="1">
          <mxGeometry x="1016.76" y="1332.6699999999998" width="17.44" height="17.44" as="geometry" />
        </mxCell>
        <mxCell id="sCxbNNpp0al_44tGgBxE-720" value="" style="sketch=0;outlineConnect=0;fontColor=#232F3E;gradientColor=none;fillColor=#232F3D;strokeColor=none;dashed=0;verticalLabelPosition=bottom;verticalAlign=top;align=center;html=1;fontSize=12;fontStyle=0;aspect=fixed;pointerEvents=1;shape=mxgraph.aws4.chat;container=0;" parent="1" vertex="1">
          <mxGeometry x="1019.76" y="1337.58" width="10.93" height="9.53" as="geometry" />
        </mxCell>
        <mxCell id="sCxbNNpp0al_44tGgBxE-721" value="" style="ellipse;whiteSpace=wrap;html=1;aspect=fixed;fillColor=#dae8fc;strokeColor=none;container=0;" parent="1" vertex="1">
          <mxGeometry x="1016.8" y="1034" width="20" height="20" as="geometry" />
        </mxCell>
        <mxCell id="sCxbNNpp0al_44tGgBxE-722" value="" style="ellipse;whiteSpace=wrap;html=1;strokeColor=none;" parent="1" vertex="1">
          <mxGeometry x="1017.8" y="1034.56" width="17.44" height="17.44" as="geometry" />
        </mxCell>
        <mxCell id="sCxbNNpp0al_44tGgBxE-723" value="" style="sketch=0;outlineConnect=0;fontColor=#232F3E;gradientColor=none;fillColor=#232F3D;strokeColor=none;dashed=0;verticalLabelPosition=bottom;verticalAlign=top;align=center;html=1;fontSize=12;fontStyle=0;aspect=fixed;pointerEvents=1;shape=mxgraph.aws4.chat;container=0;" parent="1" vertex="1">
          <mxGeometry x="1020.8" y="1039.47" width="10.93" height="9.53" as="geometry" />
        </mxCell>
        <mxCell id="sCxbNNpp0al_44tGgBxE-724" value="" style="ellipse;whiteSpace=wrap;html=1;aspect=fixed;fillColor=#dae8fc;strokeColor=none;container=0;" parent="1" vertex="1">
          <mxGeometry x="407.31" y="1721.1100000000001" width="20" height="20" as="geometry" />
        </mxCell>
        <mxCell id="sCxbNNpp0al_44tGgBxE-725" value="" style="ellipse;whiteSpace=wrap;html=1;strokeColor=none;" parent="1" vertex="1">
          <mxGeometry x="408.30999999999995" y="1721.67" width="17.44" height="17.44" as="geometry" />
        </mxCell>
        <mxCell id="sCxbNNpp0al_44tGgBxE-726" value="" style="sketch=0;outlineConnect=0;fontColor=#232F3E;gradientColor=none;fillColor=#232F3D;strokeColor=none;dashed=0;verticalLabelPosition=bottom;verticalAlign=top;align=center;html=1;fontSize=12;fontStyle=0;aspect=fixed;pointerEvents=1;shape=mxgraph.aws4.chat;container=0;" parent="1" vertex="1">
          <mxGeometry x="411.30999999999995" y="1726.58" width="10.93" height="9.53" as="geometry" />
        </mxCell>
        <mxCell id="sCxbNNpp0al_44tGgBxE-727" value="" style="ellipse;whiteSpace=wrap;html=1;aspect=fixed;fillColor=#dae8fc;strokeColor=none;container=0;" parent="1" vertex="1">
          <mxGeometry x="1015.24" y="1703" width="20" height="20" as="geometry" />
        </mxCell>
        <mxCell id="sCxbNNpp0al_44tGgBxE-728" value="" style="ellipse;whiteSpace=wrap;html=1;strokeColor=none;" parent="1" vertex="1">
          <mxGeometry x="1016.24" y="1703.56" width="17.44" height="17.44" as="geometry" />
        </mxCell>
        <mxCell id="sCxbNNpp0al_44tGgBxE-729" value="" style="sketch=0;outlineConnect=0;fontColor=#232F3E;gradientColor=none;fillColor=#232F3D;strokeColor=none;dashed=0;verticalLabelPosition=bottom;verticalAlign=top;align=center;html=1;fontSize=12;fontStyle=0;aspect=fixed;pointerEvents=1;shape=mxgraph.aws4.chat;container=0;" parent="1" vertex="1">
          <mxGeometry x="1019.24" y="1708.47" width="10.93" height="9.53" as="geometry" />
        </mxCell>
        <mxCell id="sCxbNNpp0al_44tGgBxE-730" value="" style="ellipse;whiteSpace=wrap;html=1;aspect=fixed;fillColor=#dae8fc;strokeColor=none;container=0;" parent="1" vertex="1">
          <mxGeometry x="544.31" y="725.11" width="20" height="20" as="geometry" />
        </mxCell>
        <mxCell id="sCxbNNpp0al_44tGgBxE-731" value="" style="ellipse;whiteSpace=wrap;html=1;strokeColor=none;" parent="1" vertex="1">
          <mxGeometry x="545.31" y="725.67" width="17.44" height="17.44" as="geometry" />
        </mxCell>
        <mxCell id="sCxbNNpp0al_44tGgBxE-732" value="" style="sketch=0;outlineConnect=0;fontColor=#232F3E;gradientColor=none;fillColor=#232F3D;strokeColor=none;dashed=0;verticalLabelPosition=bottom;verticalAlign=top;align=center;html=1;fontSize=12;fontStyle=0;aspect=fixed;pointerEvents=1;shape=mxgraph.aws4.chat;container=0;" parent="1" vertex="1">
          <mxGeometry x="548.31" y="730.58" width="10.93" height="9.53" as="geometry" />
        </mxCell>
        <mxCell id="sCxbNNpp0al_44tGgBxE-733" value="" style="ellipse;whiteSpace=wrap;html=1;aspect=fixed;fillColor=#dae8fc;strokeColor=none;container=0;" parent="1" vertex="1">
          <mxGeometry x="1014.7" y="723.11" width="20" height="20" as="geometry" />
        </mxCell>
        <mxCell id="sCxbNNpp0al_44tGgBxE-734" value="" style="ellipse;whiteSpace=wrap;html=1;strokeColor=none;" parent="1" vertex="1">
          <mxGeometry x="1015.7" y="723.67" width="17.44" height="17.44" as="geometry" />
        </mxCell>
        <mxCell id="sCxbNNpp0al_44tGgBxE-735" value="" style="sketch=0;outlineConnect=0;fontColor=#232F3E;gradientColor=none;fillColor=#232F3D;strokeColor=none;dashed=0;verticalLabelPosition=bottom;verticalAlign=top;align=center;html=1;fontSize=12;fontStyle=0;aspect=fixed;pointerEvents=1;shape=mxgraph.aws4.chat;container=0;" parent="1" vertex="1">
          <mxGeometry x="1018.7" y="728.58" width="10.93" height="9.53" as="geometry" />
        </mxCell>
        <mxCell id="sCxbNNpp0al_44tGgBxE-613" value="&lt;div align=&quot;left&quot;&gt;User Story: Wire Transfer&lt;/div&gt;" style="rounded=0;whiteSpace=wrap;html=1;strokeWidth=0.5;align=left;spacingLeft=10;fillStyle=solid;gradientColor=none;fillColor=light-dark(#D4E1F5,#EDEDED);fontStyle=1" parent="1" vertex="1">
          <mxGeometry x="54" y="180" width="380" height="30" as="geometry" />
        </mxCell>
        <mxCell id="sCxbNNpp0al_44tGgBxE-583" value="" style="shape=table;startSize=0;container=1;collapsible=0;childLayout=tableLayout;strokeWidth=0.5;" parent="1" vertex="1">
          <mxGeometry x="54" y="210" width="380" height="80" as="geometry" />
        </mxCell>
        <mxCell id="sCxbNNpp0al_44tGgBxE-584" value="" style="shape=tableRow;horizontal=0;startSize=0;swimlaneHead=0;swimlaneBody=0;strokeColor=inherit;top=0;left=0;bottom=0;right=0;collapsible=0;dropTarget=0;fillColor=none;points=[[0,0.5],[1,0.5]];portConstraint=eastwest;strokeWidth=0.5;" parent="sCxbNNpp0al_44tGgBxE-583" vertex="1">
          <mxGeometry width="380" height="20" as="geometry" />
        </mxCell>
        <mxCell id="sCxbNNpp0al_44tGgBxE-585" value="Who" style="shape=partialRectangle;html=1;whiteSpace=wrap;connectable=0;strokeColor=inherit;overflow=hidden;fillColor=none;top=0;left=0;bottom=0;right=0;pointerEvents=1;align=left;spacingLeft=10;strokeWidth=0.5;" parent="sCxbNNpp0al_44tGgBxE-584" vertex="1">
          <mxGeometry width="60" height="20" as="geometry">
            <mxRectangle width="60" height="20" as="alternateBounds" />
          </mxGeometry>
        </mxCell>
        <mxCell id="sCxbNNpp0al_44tGgBxE-586" value="As a ..." style="shape=partialRectangle;html=1;whiteSpace=wrap;connectable=0;strokeColor=inherit;overflow=hidden;fillColor=none;top=0;left=0;bottom=0;right=0;pointerEvents=1;align=left;spacingLeft=10;strokeWidth=0.5;" parent="sCxbNNpp0al_44tGgBxE-584" vertex="1">
          <mxGeometry x="60" width="80" height="20" as="geometry">
            <mxRectangle width="80" height="20" as="alternateBounds" />
          </mxGeometry>
        </mxCell>
        <mxCell id="sCxbNNpp0al_44tGgBxE-587" value="bank customer" style="shape=partialRectangle;html=1;whiteSpace=wrap;connectable=0;strokeColor=inherit;overflow=hidden;fillColor=none;top=0;left=0;bottom=0;right=0;pointerEvents=1;align=left;spacingLeft=10;strokeWidth=0.5;" parent="sCxbNNpp0al_44tGgBxE-584" vertex="1">
          <mxGeometry x="140" width="240" height="20" as="geometry">
            <mxRectangle width="240" height="20" as="alternateBounds" />
          </mxGeometry>
        </mxCell>
        <mxCell id="sCxbNNpp0al_44tGgBxE-588" value="" style="shape=tableRow;horizontal=0;startSize=0;swimlaneHead=0;swimlaneBody=0;strokeColor=inherit;top=0;left=0;bottom=0;right=0;collapsible=0;dropTarget=0;fillColor=none;points=[[0,0.5],[1,0.5]];portConstraint=eastwest;strokeWidth=0.5;" parent="sCxbNNpp0al_44tGgBxE-583" vertex="1">
          <mxGeometry y="20" width="380" height="20" as="geometry" />
        </mxCell>
        <mxCell id="sCxbNNpp0al_44tGgBxE-589" value="When" style="shape=partialRectangle;html=1;whiteSpace=wrap;connectable=0;strokeColor=inherit;overflow=hidden;fillColor=none;top=0;left=0;bottom=0;right=0;pointerEvents=1;align=left;spacingLeft=10;strokeWidth=0.5;" parent="sCxbNNpp0al_44tGgBxE-588" vertex="1">
          <mxGeometry width="60" height="20" as="geometry">
            <mxRectangle width="60" height="20" as="alternateBounds" />
          </mxGeometry>
        </mxCell>
        <mxCell id="sCxbNNpp0al_44tGgBxE-590" value="when ..." style="shape=partialRectangle;html=1;whiteSpace=wrap;connectable=0;strokeColor=inherit;overflow=hidden;fillColor=none;top=0;left=0;bottom=0;right=0;pointerEvents=1;align=left;spacingLeft=10;strokeWidth=0.5;" parent="sCxbNNpp0al_44tGgBxE-588" vertex="1">
          <mxGeometry x="60" width="80" height="20" as="geometry">
            <mxRectangle width="80" height="20" as="alternateBounds" />
          </mxGeometry>
        </mxCell>
        <mxCell id="sCxbNNpp0al_44tGgBxE-591" value="I am sending a wire transfer" style="shape=partialRectangle;html=1;whiteSpace=wrap;connectable=0;strokeColor=inherit;overflow=hidden;fillColor=none;top=0;left=0;bottom=0;right=0;pointerEvents=1;align=left;spacingLeft=10;strokeWidth=0.5;" parent="sCxbNNpp0al_44tGgBxE-588" vertex="1">
          <mxGeometry x="140" width="240" height="20" as="geometry">
            <mxRectangle width="240" height="20" as="alternateBounds" />
          </mxGeometry>
        </mxCell>
        <mxCell id="sCxbNNpp0al_44tGgBxE-592" value="" style="shape=tableRow;horizontal=0;startSize=0;swimlaneHead=0;swimlaneBody=0;strokeColor=inherit;top=0;left=0;bottom=0;right=0;collapsible=0;dropTarget=0;fillColor=none;points=[[0,0.5],[1,0.5]];portConstraint=eastwest;strokeWidth=0.5;" parent="sCxbNNpp0al_44tGgBxE-583" vertex="1">
          <mxGeometry y="40" width="380" height="20" as="geometry" />
        </mxCell>
        <mxCell id="sCxbNNpp0al_44tGgBxE-593" value="What" style="shape=partialRectangle;html=1;whiteSpace=wrap;connectable=0;strokeColor=inherit;overflow=hidden;fillColor=none;top=0;left=0;bottom=0;right=0;pointerEvents=1;align=left;spacingLeft=10;strokeWidth=0.5;" parent="sCxbNNpp0al_44tGgBxE-592" vertex="1">
          <mxGeometry width="60" height="20" as="geometry">
            <mxRectangle width="60" height="20" as="alternateBounds" />
          </mxGeometry>
        </mxCell>
        <mxCell id="sCxbNNpp0al_44tGgBxE-594" value="I want to ..." style="shape=partialRectangle;html=1;whiteSpace=wrap;connectable=0;strokeColor=inherit;overflow=hidden;fillColor=none;top=0;left=0;bottom=0;right=0;pointerEvents=1;align=left;spacingLeft=10;strokeWidth=0.5;" parent="sCxbNNpp0al_44tGgBxE-592" vertex="1">
          <mxGeometry x="60" width="80" height="20" as="geometry">
            <mxRectangle width="80" height="20" as="alternateBounds" />
          </mxGeometry>
        </mxCell>
        <mxCell id="sCxbNNpp0al_44tGgBxE-595" value="sometimes reuse my last info" style="shape=partialRectangle;html=1;whiteSpace=wrap;connectable=0;strokeColor=inherit;overflow=hidden;fillColor=none;top=0;left=0;bottom=0;right=0;pointerEvents=1;align=left;spacingLeft=10;strokeWidth=0.5;" parent="sCxbNNpp0al_44tGgBxE-592" vertex="1">
          <mxGeometry x="140" width="240" height="20" as="geometry">
            <mxRectangle width="240" height="20" as="alternateBounds" />
          </mxGeometry>
        </mxCell>
        <mxCell id="sCxbNNpp0al_44tGgBxE-596" value="" style="shape=tableRow;horizontal=0;startSize=0;swimlaneHead=0;swimlaneBody=0;strokeColor=inherit;top=0;left=0;bottom=0;right=0;collapsible=0;dropTarget=0;fillColor=none;points=[[0,0.5],[1,0.5]];portConstraint=eastwest;strokeWidth=0.5;" parent="sCxbNNpp0al_44tGgBxE-583" vertex="1">
          <mxGeometry y="60" width="380" height="20" as="geometry" />
        </mxCell>
        <mxCell id="sCxbNNpp0al_44tGgBxE-597" value="Why" style="shape=partialRectangle;html=1;whiteSpace=wrap;connectable=0;strokeColor=inherit;overflow=hidden;fillColor=none;top=0;left=0;bottom=0;right=0;pointerEvents=1;align=left;spacingLeft=10;strokeWidth=0.5;" parent="sCxbNNpp0al_44tGgBxE-596" vertex="1">
          <mxGeometry width="60" height="20" as="geometry">
            <mxRectangle width="60" height="20" as="alternateBounds" />
          </mxGeometry>
        </mxCell>
        <mxCell id="sCxbNNpp0al_44tGgBxE-598" value="so I can ..." style="shape=partialRectangle;html=1;whiteSpace=wrap;connectable=0;strokeColor=inherit;overflow=hidden;fillColor=none;top=0;left=0;bottom=0;right=0;pointerEvents=1;align=left;spacingLeft=10;strokeWidth=0.5;" parent="sCxbNNpp0al_44tGgBxE-596" vertex="1">
          <mxGeometry x="60" width="80" height="20" as="geometry">
            <mxRectangle width="80" height="20" as="alternateBounds" />
          </mxGeometry>
        </mxCell>
        <mxCell id="sCxbNNpp0al_44tGgBxE-599" value="save time and avoid mistakes" style="shape=partialRectangle;html=1;whiteSpace=wrap;connectable=0;strokeColor=inherit;overflow=hidden;fillColor=none;top=0;left=0;bottom=0;right=0;pointerEvents=1;align=left;spacingLeft=10;strokeWidth=0.5;" parent="sCxbNNpp0al_44tGgBxE-596" vertex="1">
          <mxGeometry x="140" width="240" height="20" as="geometry">
            <mxRectangle width="240" height="20" as="alternateBounds" />
          </mxGeometry>
        </mxCell>
        <mxCell id="ery6P6p8-8YexIOCc8sh-113" style="edgeStyle=orthogonalEdgeStyle;rounded=0;orthogonalLoop=1;jettySize=auto;html=1;" edge="1" parent="1" source="ery6P6p8-8YexIOCc8sh-106" target="ery6P6p8-8YexIOCc8sh-109">
          <mxGeometry relative="1" as="geometry" />
        </mxCell>
        <mxCell id="ery6P6p8-8YexIOCc8sh-107" style="edgeStyle=orthogonalEdgeStyle;rounded=0;orthogonalLoop=1;jettySize=auto;html=1;entryX=0.5;entryY=0;entryDx=0;entryDy=0;" edge="1" parent="1" source="ery6P6p8-8YexIOCc8sh-98" target="ery6P6p8-8YexIOCc8sh-102">
          <mxGeometry relative="1" as="geometry" />
        </mxCell>
        <mxCell id="ery6P6p8-8YexIOCc8sh-120" style="edgeStyle=orthogonalEdgeStyle;rounded=0;orthogonalLoop=1;jettySize=auto;html=1;" edge="1" parent="1" source="ery6P6p8-8YexIOCc8sh-110" target="ery6P6p8-8YexIOCc8sh-115">
          <mxGeometry relative="1" as="geometry" />
        </mxCell>
        <mxCell id="ery6P6p8-8YexIOCc8sh-127" style="edgeStyle=orthogonalEdgeStyle;rounded=0;orthogonalLoop=1;jettySize=auto;html=1;entryX=0.5;entryY=0;entryDx=0;entryDy=0;" edge="1" parent="1" source="ery6P6p8-8YexIOCc8sh-119" target="ery6P6p8-8YexIOCc8sh-123">
          <mxGeometry relative="1" as="geometry" />
        </mxCell>
        <mxCell id="ery6P6p8-8YexIOCc8sh-98" value="&lt;font&gt;&lt;i&gt;I would like to send a wire transfer&lt;/i&gt;&lt;/font&gt;" style="rounded=0;html=1;strokeWidth=0.5;strokeColor=default;fillColor=default;align=left;spacing=0;spacingTop=0;shadow=1;whiteSpace=wrap;labelPosition=center;verticalLabelPosition=middle;verticalAlign=top;spacingLeft=10;spacingRight=10;fontFamily=Helvetica;" vertex="1" parent="1">
          <mxGeometry x="-550" y="309" width="190" height="41" as="geometry" />
        </mxCell>
        <mxCell id="ery6P6p8-8YexIOCc8sh-99" value="" style="ellipse;whiteSpace=wrap;html=1;strokeColor=default;strokeWidth=0.5;" vertex="1" parent="1">
          <mxGeometry x="-383" y="285" width="17.44" height="17.44" as="geometry" />
        </mxCell>
        <mxCell id="ery6P6p8-8YexIOCc8sh-100" value="" style="sketch=0;outlineConnect=0;fontColor=#232F3E;gradientColor=none;fillColor=#232F3D;strokeColor=none;dashed=0;verticalLabelPosition=bottom;verticalAlign=top;align=center;html=1;fontSize=12;fontStyle=0;aspect=fixed;pointerEvents=1;shape=mxgraph.aws4.user;" vertex="1" parent="1">
          <mxGeometry x="-379.26" y="288.25" width="10.47" height="10.47" as="geometry" />
        </mxCell>
        <mxCell id="ery6P6p8-8YexIOCc8sh-101" value="" style="group;fontStyle=2" vertex="1" connectable="0" parent="1">
          <mxGeometry x="-550" y="385" width="190" height="115" as="geometry" />
        </mxCell>
        <mxCell id="ery6P6p8-8YexIOCc8sh-102" value="&lt;div align=&quot;left&quot; style=&quot;margin-left: 0px;&quot;&gt;Agent Message w Options&lt;/div&gt;" style="rounded=0;whiteSpace=wrap;html=1;fillColor=#E6D0DE;fontColor=#333333;strokeColor=default;align=left;spacing=10;fontStyle=1;shadow=1;fillStyle=solid;strokeWidth=0.5;" vertex="1" parent="ery6P6p8-8YexIOCc8sh-101">
          <mxGeometry width="190" height="30.045045045045047" as="geometry" />
        </mxCell>
        <mxCell id="ery6P6p8-8YexIOCc8sh-103" value="Great. I will need the origin and destination account. Would you like to use the same accounts as the last time?&amp;nbsp;" style="rounded=0;html=1;strokeWidth=0.5;strokeColor=default;fillColor=default;align=left;spacing=0;spacingTop=0;shadow=1;whiteSpace=wrap;labelPosition=center;verticalLabelPosition=middle;verticalAlign=top;spacingLeft=10;spacingRight=10;fontStyle=2" vertex="1" parent="ery6P6p8-8YexIOCc8sh-101">
          <mxGeometry y="30.05" width="190" height="69.95" as="geometry" />
        </mxCell>
        <mxCell id="ery6P6p8-8YexIOCc8sh-104" value="" style="ellipse;whiteSpace=wrap;html=1;strokeColor=default;strokeWidth=0.5;" vertex="1" parent="ery6P6p8-8YexIOCc8sh-101">
          <mxGeometry x="165.44" y="5.242342342342286" width="17.44" height="18.06846846846847" as="geometry" />
        </mxCell>
        <mxCell id="ery6P6p8-8YexIOCc8sh-105" value="" style="sketch=0;outlineConnect=0;fontColor=#232F3E;gradientColor=none;fillColor=#232F3D;strokeColor=none;dashed=0;verticalLabelPosition=bottom;verticalAlign=top;align=center;html=1;fontSize=12;fontStyle=0;aspect=fixed;pointerEvents=1;shape=mxgraph.aws4.chat;container=0;" vertex="1" parent="ery6P6p8-8YexIOCc8sh-101">
          <mxGeometry x="169" y="10.702252252252178" width="10.55" height="9.2" as="geometry" />
        </mxCell>
        <mxCell id="ery6P6p8-8YexIOCc8sh-106" value="- Yes&lt;br&gt;- No" style="rounded=0;html=1;strokeWidth=0.5;strokeColor=default;fillColor=default;align=left;spacing=0;spacingTop=0;shadow=1;whiteSpace=wrap;labelPosition=center;verticalLabelPosition=middle;verticalAlign=top;spacingLeft=10;spacingRight=10;" vertex="1" parent="1">
          <mxGeometry x="-550" y="485" width="190" height="40" as="geometry" />
        </mxCell>
        <mxCell id="ery6P6p8-8YexIOCc8sh-108" value="" style="group;fontStyle=2" vertex="1" connectable="0" parent="1">
          <mxGeometry x="-600" y="575" width="190" height="70" as="geometry" />
        </mxCell>
        <mxCell id="ery6P6p8-8YexIOCc8sh-109" value="&lt;div align=&quot;left&quot; style=&quot;margin-left: 0px;&quot;&gt;User Message&lt;/div&gt;" style="rounded=0;whiteSpace=wrap;html=1;fillColor=light-dark(#D5E8D4,#1A1A1A);fontColor=#333333;strokeColor=#666666;align=left;spacing=10;fontStyle=1;shadow=1;fillStyle=solid;gradientColor=none;strokeWidth=0.5;" vertex="1" parent="ery6P6p8-8YexIOCc8sh-108">
          <mxGeometry width="190" height="29" as="geometry" />
        </mxCell>
        <mxCell id="ery6P6p8-8YexIOCc8sh-110" value="Yes" style="rounded=0;html=1;strokeWidth=0.5;strokeColor=default;fillColor=default;align=left;spacing=0;spacingTop=0;shadow=1;whiteSpace=wrap;labelPosition=center;verticalLabelPosition=middle;verticalAlign=top;spacingLeft=10;spacingRight=10;fontStyle=2" vertex="1" parent="ery6P6p8-8YexIOCc8sh-108">
          <mxGeometry y="29" width="190" height="41" as="geometry" />
        </mxCell>
        <mxCell id="ery6P6p8-8YexIOCc8sh-111" value="" style="ellipse;whiteSpace=wrap;html=1;strokeColor=default;strokeWidth=0.5;" vertex="1" parent="ery6P6p8-8YexIOCc8sh-108">
          <mxGeometry x="167" y="5" width="17.44" height="17.44" as="geometry" />
        </mxCell>
        <mxCell id="ery6P6p8-8YexIOCc8sh-112" value="" style="sketch=0;outlineConnect=0;fontColor=#232F3E;gradientColor=none;fillColor=#232F3D;strokeColor=none;dashed=0;verticalLabelPosition=bottom;verticalAlign=top;align=center;html=1;fontSize=12;fontStyle=0;aspect=fixed;pointerEvents=1;shape=mxgraph.aws4.user;" vertex="1" parent="ery6P6p8-8YexIOCc8sh-108">
          <mxGeometry x="170.74" y="8.25" width="10.47" height="10.47" as="geometry" />
        </mxCell>
        <mxCell id="ery6P6p8-8YexIOCc8sh-122" value="" style="group;fontStyle=2" vertex="1" connectable="0" parent="1">
          <mxGeometry x="-740" y="929.47" width="190" height="70" as="geometry" />
        </mxCell>
        <mxCell id="ery6P6p8-8YexIOCc8sh-123" value="&lt;div align=&quot;left&quot; style=&quot;margin-left: 0px;&quot;&gt;User Message&lt;/div&gt;" style="rounded=0;whiteSpace=wrap;html=1;fillColor=light-dark(#D5E8D4,#1A1A1A);fontColor=#333333;strokeColor=#666666;align=left;spacing=10;fontStyle=1;shadow=1;fillStyle=solid;gradientColor=none;strokeWidth=0.5;" vertex="1" parent="ery6P6p8-8YexIOCc8sh-122">
          <mxGeometry width="190" height="29" as="geometry" />
        </mxCell>
        <mxCell id="ery6P6p8-8YexIOCc8sh-124" value="Yes" style="rounded=0;html=1;strokeWidth=0.5;strokeColor=default;fillColor=default;align=left;spacing=0;spacingTop=0;shadow=1;whiteSpace=wrap;labelPosition=center;verticalLabelPosition=middle;verticalAlign=top;spacingLeft=10;spacingRight=10;fontStyle=2" vertex="1" parent="ery6P6p8-8YexIOCc8sh-122">
          <mxGeometry y="29" width="190" height="41" as="geometry" />
        </mxCell>
        <mxCell id="ery6P6p8-8YexIOCc8sh-125" value="" style="ellipse;whiteSpace=wrap;html=1;strokeColor=default;strokeWidth=0.5;" vertex="1" parent="ery6P6p8-8YexIOCc8sh-122">
          <mxGeometry x="167" y="5" width="17.44" height="17.44" as="geometry" />
        </mxCell>
        <mxCell id="ery6P6p8-8YexIOCc8sh-126" value="" style="sketch=0;outlineConnect=0;fontColor=#232F3E;gradientColor=none;fillColor=#232F3D;strokeColor=none;dashed=0;verticalLabelPosition=bottom;verticalAlign=top;align=center;html=1;fontSize=12;fontStyle=0;aspect=fixed;pointerEvents=1;shape=mxgraph.aws4.user;" vertex="1" parent="ery6P6p8-8YexIOCc8sh-122">
          <mxGeometry x="170.74" y="8.25" width="10.47" height="10.47" as="geometry" />
        </mxCell>
        <mxCell id="ery6P6p8-8YexIOCc8sh-128" value="" style="group" vertex="1" connectable="0" parent="1">
          <mxGeometry x="-600" y="685.67" width="190" height="170" as="geometry" />
        </mxCell>
        <mxCell id="ery6P6p8-8YexIOCc8sh-121" value="" style="group;fontFamily=Garamond;" vertex="1" connectable="0" parent="ery6P6p8-8YexIOCc8sh-128">
          <mxGeometry width="190" height="156.47000000000003" as="geometry" />
        </mxCell>
        <mxCell id="ery6P6p8-8YexIOCc8sh-114" value="" style="group;fontStyle=2;fontFamily=Georgia;" vertex="1" connectable="0" parent="ery6P6p8-8YexIOCc8sh-121">
          <mxGeometry width="190" height="130" as="geometry" />
        </mxCell>
        <mxCell id="ery6P6p8-8YexIOCc8sh-115" value="&lt;div align=&quot;left&quot; style=&quot;margin-left: 0px;&quot;&gt;Agent Message w Options&lt;/div&gt;" style="rounded=0;whiteSpace=wrap;html=1;fillColor=#E6D0DE;fontColor=#333333;strokeColor=default;align=left;spacing=10;fontStyle=1;shadow=1;fillStyle=solid;strokeWidth=0.5;" vertex="1" parent="ery6P6p8-8YexIOCc8sh-114">
          <mxGeometry width="190" height="31.416666666666664" as="geometry" />
        </mxCell>
        <mxCell id="ery6P6p8-8YexIOCc8sh-116" value="Here is the information from your last wire:&lt;br&gt;- Source Acct: 123435&lt;br&gt;&lt;div&gt;- Target Acct: 34524&lt;/div&gt;&lt;div&gt;&lt;br&gt;&lt;/div&gt;Does this look correct?" style="rounded=0;html=1;strokeWidth=0.5;strokeColor=default;fillColor=default;align=left;spacing=0;spacingTop=0;shadow=1;whiteSpace=wrap;labelPosition=center;verticalLabelPosition=middle;verticalAlign=top;spacingLeft=10;spacingRight=10;fontStyle=2;fontFamily=Helvetica;" vertex="1" parent="ery6P6p8-8YexIOCc8sh-114">
          <mxGeometry y="31.416666666666664" width="190" height="98.58333333333333" as="geometry" />
        </mxCell>
        <mxCell id="ery6P6p8-8YexIOCc8sh-117" value="" style="ellipse;whiteSpace=wrap;html=1;strokeColor=default;strokeWidth=0.5;" vertex="1" parent="ery6P6p8-8YexIOCc8sh-114">
          <mxGeometry x="165.44" y="5.481666666666607" width="17.44" height="18.893333333333334" as="geometry" />
        </mxCell>
        <mxCell id="ery6P6p8-8YexIOCc8sh-118" value="" style="sketch=0;outlineConnect=0;fontColor=#232F3E;gradientColor=none;fillColor=#232F3D;strokeColor=none;dashed=0;verticalLabelPosition=bottom;verticalAlign=top;align=center;html=1;fontSize=12;fontStyle=0;aspect=fixed;pointerEvents=1;shape=mxgraph.aws4.chat;container=0;" vertex="1" parent="ery6P6p8-8YexIOCc8sh-114">
          <mxGeometry x="169" y="11.190833333333254" width="10.55" height="9.2" as="geometry" />
        </mxCell>
        <mxCell id="ery6P6p8-8YexIOCc8sh-119" value="&lt;div&gt;- Option 1&lt;/div&gt;&lt;div&gt;- Option 2&lt;/div&gt;" style="rounded=0;html=1;strokeWidth=0.5;strokeColor=default;fillColor=default;align=left;spacing=0;spacingTop=0;shadow=1;whiteSpace=wrap;labelPosition=center;verticalLabelPosition=middle;verticalAlign=top;spacingLeft=10;spacingRight=10;" vertex="1" parent="ery6P6p8-8YexIOCc8sh-128">
          <mxGeometry y="130" width="190" height="40" as="geometry" />
        </mxCell>
        <mxCell id="ery6P6p8-8YexIOCc8sh-97" value="&lt;div align=&quot;left&quot; style=&quot;margin-left: 0px;&quot;&gt;User Message&lt;/div&gt;" style="rounded=0;whiteSpace=wrap;html=1;fillColor=light-dark(#D5E8D4,#1A1A1A);fontColor=#333333;strokeColor=#666666;align=left;spacing=10;fontStyle=1;shadow=1;fillStyle=solid;gradientColor=none;strokeWidth=0.5;" vertex="1" parent="1">
          <mxGeometry x="-550" y="280" width="190" height="29" as="geometry" />
        </mxCell>
        <mxCell id="ery6P6p8-8YexIOCc8sh-189" value="" style="group" vertex="1" connectable="0" parent="1">
          <mxGeometry x="-740" y="1060" width="190" height="111" as="geometry" />
        </mxCell>
        <mxCell id="ery6P6p8-8YexIOCc8sh-190" value="&lt;div align=&quot;left&quot; style=&quot;margin-left: 0px;&quot;&gt;Agent Data Request&lt;/div&gt;" style="rounded=0;whiteSpace=wrap;html=1;fillColor=#E6D0DE;fontColor=#333333;strokeColor=default;align=left;spacing=10;fontStyle=1;shadow=1;fillStyle=solid;strokeWidth=0.5;" vertex="1" parent="ery6P6p8-8YexIOCc8sh-189">
          <mxGeometry width="190" height="29" as="geometry" />
        </mxCell>
        <mxCell id="ery6P6p8-8YexIOCc8sh-191" value="What amount would you like to sent?" style="rounded=0;html=1;strokeWidth=0.5;strokeColor=default;fillColor=default;align=left;spacing=0;spacingTop=0;shadow=1;whiteSpace=wrap;labelPosition=center;verticalLabelPosition=middle;verticalAlign=top;spacingLeft=10;spacingRight=10;fontStyle=2" vertex="1" parent="ery6P6p8-8YexIOCc8sh-189">
          <mxGeometry y="29" width="190" height="42" as="geometry" />
        </mxCell>
        <mxCell id="ery6P6p8-8YexIOCc8sh-192" value="" style="ellipse;whiteSpace=wrap;html=1;strokeColor=default;strokeWidth=0.5;" vertex="1" parent="ery6P6p8-8YexIOCc8sh-189">
          <mxGeometry x="165.44" y="5.059999999999945" width="17.44" height="17.44" as="geometry" />
        </mxCell>
        <mxCell id="ery6P6p8-8YexIOCc8sh-193" value="" style="sketch=0;outlineConnect=0;fontColor=#232F3E;gradientColor=none;fillColor=#232F3D;strokeColor=none;dashed=0;verticalLabelPosition=bottom;verticalAlign=top;align=center;html=1;fontSize=12;fontStyle=0;aspect=fixed;pointerEvents=1;shape=mxgraph.aws4.chat;container=0;" vertex="1" parent="ery6P6p8-8YexIOCc8sh-189">
          <mxGeometry x="169" y="10.329999999999927" width="10.55" height="9.2" as="geometry" />
        </mxCell>
        <mxCell id="ery6P6p8-8YexIOCc8sh-194" value="- Amount" style="rounded=0;html=1;strokeWidth=0.5;strokeColor=default;fillColor=default;align=left;spacing=0;spacingTop=0;shadow=1;whiteSpace=wrap;labelPosition=center;verticalLabelPosition=middle;verticalAlign=top;spacingLeft=10;spacingRight=10;" vertex="1" parent="ery6P6p8-8YexIOCc8sh-189">
          <mxGeometry y="71" width="190" height="40" as="geometry" />
        </mxCell>
        <mxCell id="ery6P6p8-8YexIOCc8sh-195" value="" style="group" vertex="1" connectable="0" parent="1">
          <mxGeometry x="-740" y="1218" width="190" height="70" as="geometry" />
        </mxCell>
        <mxCell id="ery6P6p8-8YexIOCc8sh-196" value="&lt;div align=&quot;left&quot; style=&quot;margin-left: 0px;&quot;&gt;User Message&lt;/div&gt;" style="rounded=0;whiteSpace=wrap;html=1;fillColor=light-dark(#D5E8D4,#1A1A1A);fontColor=#333333;strokeColor=#666666;align=left;spacing=10;fontStyle=1;shadow=1;fillStyle=solid;gradientColor=none;strokeWidth=0.5;" vertex="1" parent="ery6P6p8-8YexIOCc8sh-195">
          <mxGeometry width="190" height="29" as="geometry" />
        </mxCell>
        <mxCell id="ery6P6p8-8YexIOCc8sh-197" value="500" style="rounded=0;html=1;strokeWidth=0.5;strokeColor=default;fillColor=default;align=left;spacing=0;spacingTop=0;shadow=1;whiteSpace=wrap;labelPosition=center;verticalLabelPosition=middle;verticalAlign=top;spacingLeft=10;spacingRight=10;fontStyle=2" vertex="1" parent="ery6P6p8-8YexIOCc8sh-195">
          <mxGeometry y="29" width="190" height="41" as="geometry" />
        </mxCell>
        <mxCell id="ery6P6p8-8YexIOCc8sh-198" value="" style="ellipse;whiteSpace=wrap;html=1;strokeColor=default;strokeWidth=0.5;" vertex="1" parent="ery6P6p8-8YexIOCc8sh-195">
          <mxGeometry x="167" y="5" width="17.44" height="17.44" as="geometry" />
        </mxCell>
        <mxCell id="ery6P6p8-8YexIOCc8sh-199" value="" style="sketch=0;outlineConnect=0;fontColor=#232F3E;gradientColor=none;fillColor=#232F3D;strokeColor=none;dashed=0;verticalLabelPosition=bottom;verticalAlign=top;align=center;html=1;fontSize=12;fontStyle=0;aspect=fixed;pointerEvents=1;shape=mxgraph.aws4.user;" vertex="1" parent="ery6P6p8-8YexIOCc8sh-195">
          <mxGeometry x="170.74" y="8.25" width="10.47" height="10.47" as="geometry" />
        </mxCell>
        <mxCell id="ery6P6p8-8YexIOCc8sh-208" value="" style="group" vertex="1" connectable="0" parent="1">
          <mxGeometry x="-740" y="1347" width="190" height="222.8900000000001" as="geometry" />
        </mxCell>
        <mxCell id="ery6P6p8-8YexIOCc8sh-200" value="" style="group" vertex="1" connectable="0" parent="ery6P6p8-8YexIOCc8sh-208">
          <mxGeometry width="190" height="183" as="geometry" />
        </mxCell>
        <mxCell id="ery6P6p8-8YexIOCc8sh-201" value="&lt;div align=&quot;left&quot; style=&quot;margin-left: 0px;&quot;&gt;Agent Message w Options&lt;/div&gt;" style="rounded=0;whiteSpace=wrap;html=1;fillColor=#E6D0DE;fontColor=#333333;strokeColor=default;align=left;spacing=10;fontStyle=1;shadow=1;fillStyle=solid;strokeWidth=0.5;" vertex="1" parent="ery6P6p8-8YexIOCc8sh-200">
          <mxGeometry width="190" height="40" as="geometry" />
        </mxCell>
        <mxCell id="ery6P6p8-8YexIOCc8sh-202" value="Ok, before I send the wire please review this information:&lt;br&gt;&lt;br&gt;- Source Acct: 123435&lt;br&gt;- Target Acct: 34524&lt;br&gt;- Bank code: ABCDE&lt;br&gt;- Amount: $500&lt;br&gt;&lt;br&gt;Does this look correct?" style="rounded=0;html=1;strokeWidth=0.5;strokeColor=default;fillColor=default;align=left;spacing=0;spacingTop=0;shadow=1;whiteSpace=wrap;labelPosition=center;verticalLabelPosition=middle;verticalAlign=top;spacingLeft=10;spacingRight=10;fontStyle=2" vertex="1" parent="ery6P6p8-8YexIOCc8sh-200">
          <mxGeometry y="37.90714285714286" width="190" height="145.09285714285716" as="geometry" />
        </mxCell>
        <mxCell id="ery6P6p8-8YexIOCc8sh-206" value="" style="ellipse;whiteSpace=wrap;html=1;strokeColor=default;strokeWidth=0.5;" vertex="1" parent="ery6P6p8-8YexIOCc8sh-200">
          <mxGeometry x="165" y="10.279999999999973" width="17.44" height="17.44" as="geometry" />
        </mxCell>
        <mxCell id="ery6P6p8-8YexIOCc8sh-207" value="" style="sketch=0;outlineConnect=0;fontColor=#232F3E;gradientColor=none;fillColor=#232F3D;strokeColor=none;dashed=0;verticalLabelPosition=bottom;verticalAlign=top;align=center;html=1;fontSize=12;fontStyle=0;aspect=fixed;pointerEvents=1;shape=mxgraph.aws4.chat;container=0;" vertex="1" parent="ery6P6p8-8YexIOCc8sh-200">
          <mxGeometry x="168.55999999999995" y="15.549999999999955" width="10.55" height="9.2" as="geometry" />
        </mxCell>
        <mxCell id="ery6P6p8-8YexIOCc8sh-205" value="&lt;div&gt;- Yes&lt;/div&gt;&lt;div&gt;- No&lt;/div&gt;" style="rounded=0;html=1;strokeWidth=0.5;strokeColor=default;fillColor=default;align=left;spacing=0;spacingTop=0;shadow=1;whiteSpace=wrap;labelPosition=center;verticalLabelPosition=middle;verticalAlign=top;spacingLeft=10;spacingRight=10;" vertex="1" parent="ery6P6p8-8YexIOCc8sh-208">
          <mxGeometry y="182.8900000000001" width="190" height="40" as="geometry" />
        </mxCell>
        <mxCell id="ery6P6p8-8YexIOCc8sh-209" style="edgeStyle=orthogonalEdgeStyle;rounded=0;orthogonalLoop=1;jettySize=auto;html=1;" edge="1" parent="1" source="ery6P6p8-8YexIOCc8sh-124" target="ery6P6p8-8YexIOCc8sh-190">
          <mxGeometry relative="1" as="geometry" />
        </mxCell>
        <mxCell id="ery6P6p8-8YexIOCc8sh-210" style="edgeStyle=orthogonalEdgeStyle;rounded=0;orthogonalLoop=1;jettySize=auto;html=1;entryX=0.5;entryY=0;entryDx=0;entryDy=0;" edge="1" parent="1" source="ery6P6p8-8YexIOCc8sh-194" target="ery6P6p8-8YexIOCc8sh-196">
          <mxGeometry relative="1" as="geometry" />
        </mxCell>
        <mxCell id="ery6P6p8-8YexIOCc8sh-211" style="edgeStyle=orthogonalEdgeStyle;rounded=0;orthogonalLoop=1;jettySize=auto;html=1;entryX=0.5;entryY=0;entryDx=0;entryDy=0;" edge="1" parent="1" source="ery6P6p8-8YexIOCc8sh-197" target="ery6P6p8-8YexIOCc8sh-201">
          <mxGeometry relative="1" as="geometry" />
        </mxCell>
        <mxCell id="ery6P6p8-8YexIOCc8sh-212" value="" style="group" vertex="1" connectable="0" parent="1">
          <mxGeometry x="-740" y="1608" width="190" height="70" as="geometry" />
        </mxCell>
        <mxCell id="ery6P6p8-8YexIOCc8sh-213" value="&lt;div align=&quot;left&quot; style=&quot;margin-left: 0px;&quot;&gt;User Message&lt;/div&gt;" style="rounded=0;whiteSpace=wrap;html=1;fillColor=light-dark(#D5E8D4,#1A1A1A);fontColor=#333333;strokeColor=#666666;align=left;spacing=10;fontStyle=1;shadow=1;fillStyle=solid;gradientColor=none;strokeWidth=0.5;" vertex="1" parent="ery6P6p8-8YexIOCc8sh-212">
          <mxGeometry width="190" height="29" as="geometry" />
        </mxCell>
        <mxCell id="ery6P6p8-8YexIOCc8sh-214" value="It looks good" style="rounded=0;html=1;strokeWidth=0.5;strokeColor=default;fillColor=default;align=left;spacing=0;spacingTop=0;shadow=1;whiteSpace=wrap;labelPosition=center;verticalLabelPosition=middle;verticalAlign=top;spacingLeft=10;spacingRight=10;fontStyle=2" vertex="1" parent="ery6P6p8-8YexIOCc8sh-212">
          <mxGeometry y="29" width="190" height="41" as="geometry" />
        </mxCell>
        <mxCell id="ery6P6p8-8YexIOCc8sh-215" value="" style="ellipse;whiteSpace=wrap;html=1;strokeColor=default;strokeWidth=0.5;" vertex="1" parent="ery6P6p8-8YexIOCc8sh-212">
          <mxGeometry x="167" y="5" width="17.44" height="17.44" as="geometry" />
        </mxCell>
        <mxCell id="ery6P6p8-8YexIOCc8sh-216" value="" style="sketch=0;outlineConnect=0;fontColor=#232F3E;gradientColor=none;fillColor=#232F3D;strokeColor=none;dashed=0;verticalLabelPosition=bottom;verticalAlign=top;align=center;html=1;fontSize=12;fontStyle=0;aspect=fixed;pointerEvents=1;shape=mxgraph.aws4.user;" vertex="1" parent="ery6P6p8-8YexIOCc8sh-212">
          <mxGeometry x="170.74" y="8.25" width="10.47" height="10.47" as="geometry" />
        </mxCell>
        <mxCell id="ery6P6p8-8YexIOCc8sh-217" value="" style="group" vertex="1" connectable="0" parent="1">
          <mxGeometry x="-739" y="1718" width="190" height="71.52999999999997" as="geometry" />
        </mxCell>
        <mxCell id="ery6P6p8-8YexIOCc8sh-218" value="&lt;div align=&quot;left&quot; style=&quot;margin-left: 0px;&quot;&gt;Agent Message&lt;/div&gt;" style="rounded=0;whiteSpace=wrap;html=1;fillColor=#E6D0DE;fontColor=#333333;strokeColor=default;align=left;spacing=10;fontStyle=1;shadow=1;fillStyle=solid;strokeWidth=0.5;" vertex="1" parent="ery6P6p8-8YexIOCc8sh-217">
          <mxGeometry width="190" height="29" as="geometry" />
        </mxCell>
        <mxCell id="ery6P6p8-8YexIOCc8sh-219" value="I have completed your transfer" style="rounded=0;html=1;strokeWidth=0.5;strokeColor=default;fillColor=default;align=left;spacing=0;spacingTop=0;shadow=1;whiteSpace=wrap;labelPosition=center;verticalLabelPosition=middle;verticalAlign=top;spacingLeft=10;spacingRight=10;fontStyle=2" vertex="1" parent="ery6P6p8-8YexIOCc8sh-217">
          <mxGeometry y="29" width="190" height="42.53" as="geometry" />
        </mxCell>
        <mxCell id="ery6P6p8-8YexIOCc8sh-220" value="" style="ellipse;whiteSpace=wrap;html=1;strokeColor=default;strokeWidth=0.5;" vertex="1" parent="ery6P6p8-8YexIOCc8sh-217">
          <mxGeometry x="165.44" y="5.059999999999945" width="17.44" height="17.44" as="geometry" />
        </mxCell>
        <mxCell id="ery6P6p8-8YexIOCc8sh-221" value="" style="sketch=0;outlineConnect=0;fontColor=#232F3E;gradientColor=none;fillColor=#232F3D;strokeColor=none;dashed=0;verticalLabelPosition=bottom;verticalAlign=top;align=center;html=1;fontSize=12;fontStyle=0;aspect=fixed;pointerEvents=1;shape=mxgraph.aws4.chat;container=0;" vertex="1" parent="ery6P6p8-8YexIOCc8sh-217">
          <mxGeometry x="169" y="10.329999999999927" width="10.55" height="9.2" as="geometry" />
        </mxCell>
      </root>
    </mxGraphModel>
  </diagram>
</mxfile>
